<svg xmlns="http://www.w3.org/2000/svg" xmlns:xlink="http://www.w3.org/1999/xlink" contentStyleType="text/css" height="824.8px" preserveAspectRatio="none" style="width:1305px;height:824px;background:#FFFFFF;" version="1.1" viewBox="0 0 1305 824" width="1305.6px" zoomAndPan="magnify"><title>Vista L&#243;gica N&#237;vel 2</title><defs/><g><text fill="#000000" font-family="sans-serif" font-size="11.2" font-weight="bold" lengthAdjust="spacing" textLength="106.772" x="594.0783" y="19.9727">Vista L&#243;gica N&#237;vel 2</text><!--cluster LMS--><g id="cluster_LMS"><rect fill="none" height="664.8" rx="2" ry="2" style="stroke:#181818;stroke-width:0.8000000000000002;" width="1241.6" x="43.28" y="39.3903"/><rect fill="none" height="8" style="stroke:#181818;stroke-width:0.8000000000000002;" width="12" x="1268.88" y="43.3903"/><rect fill="none" height="1.6" style="stroke:#181818;stroke-width:0.8000000000000002;" width="3.2" x="1267.28" y="44.9903"/><rect fill="none" height="1.6" style="stroke:#181818;stroke-width:0.8000000000000002;" width="3.2" x="1267.28" y="48.1903"/><text fill="#000000" font-family="sans-serif" font-size="11.2" font-style="italic" lengthAdjust="spacing" textLength="44.699" x="641.7305" y="61.763">&#171;system&#187;</text><text fill="#000000" font-family="sans-serif" font-size="11.2" font-weight="bold" lengthAdjust="spacing" textLength="23.2259" x="652.467" y="77.0173">LMS</text></g><!--cluster Message Broker--><g id="cluster_Message Broker"><rect fill="none" height="126.8" rx="2" ry="2" style="stroke:#181818;stroke-width:0.8000000000000002;" width="97.6" x="544.88" y="68.5903"/><rect fill="none" height="8" style="stroke:#181818;stroke-width:0.8000000000000002;" width="12" x="626.48" y="72.5903"/><rect fill="none" height="1.6" style="stroke:#181818;stroke-width:0.8000000000000002;" width="3.2" x="624.88" y="74.1903"/><rect fill="none" height="1.6" style="stroke:#181818;stroke-width:0.8000000000000002;" width="3.2" x="624.88" y="77.3903"/><text fill="#000000" font-family="sans-serif" font-size="11.2" font-style="italic" lengthAdjust="spacing" textLength="58.0494" x="564.6553" y="90.963">&#171;container&#187;</text><text fill="#000000" font-family="sans-serif" font-size="11.2" font-weight="bold" lengthAdjust="spacing" textLength="89.7593" x="548.8004" y="106.2173">Message Broker</text></g><!--cluster Auth--><g id="cluster_Auth"><rect fill="none" height="88.8" rx="2" ry="2" style="stroke:#181818;stroke-width:0.8000000000000002;" width="100.8" x="92.88" y="422.5903"/><rect fill="none" height="8" style="stroke:#181818;stroke-width:0.8000000000000002;" width="12" x="177.68" y="426.5903"/><rect fill="none" height="1.6" style="stroke:#181818;stroke-width:0.8000000000000002;" width="3.2" x="176.08" y="428.1903"/><rect fill="none" height="1.6" style="stroke:#181818;stroke-width:0.8000000000000002;" width="3.2" x="176.08" y="431.3903"/><text fill="#000000" font-family="sans-serif" font-size="11.2" font-style="italic" lengthAdjust="spacing" textLength="58.0494" x="114.2553" y="444.963">&#171;container&#187;</text><text fill="#000000" font-family="sans-serif" font-size="11.2" font-weight="bold" lengthAdjust="spacing" textLength="26.4431" x="130.0584" y="460.2173">Auth</text></g><!--cluster BookCom--><g id="cluster_BookCom"><rect fill="none" height="123.2" rx="2" ry="2" style="stroke:#181818;stroke-width:0.8000000000000002;" width="83.2" x="252.88" y="511.3903"/><rect fill="none" height="8" style="stroke:#181818;stroke-width:0.8000000000000002;" width="12" x="320.08" y="515.3903"/><rect fill="none" height="1.6" style="stroke:#181818;stroke-width:0.8000000000000002;" width="3.2" x="318.48" y="516.9903"/><rect fill="none" height="1.6" style="stroke:#181818;stroke-width:0.8000000000000002;" width="3.2" x="318.48" y="520.1903"/><text fill="#000000" font-family="sans-serif" font-size="11.2" font-style="italic" lengthAdjust="spacing" textLength="58.0494" x="265.4553" y="533.763">&#171;container&#187;</text><text fill="#000000" font-family="sans-serif" font-size="11.2" font-weight="bold" lengthAdjust="spacing" textLength="53.589" x="267.6855" y="549.0173">BookCom</text></g><!--cluster BookQuery--><g id="cluster_BookQuery"><rect fill="none" height="80.8" rx="2" ry="2" style="stroke:#181818;stroke-width:0.8000000000000002;" width="94.4" x="404.08" y="553.7903"/><rect fill="none" height="8" style="stroke:#181818;stroke-width:0.8000000000000002;" width="12" x="482.48" y="557.7903"/><rect fill="none" height="1.6" style="stroke:#181818;stroke-width:0.8000000000000002;" width="3.2" x="480.88" y="559.3903"/><rect fill="none" height="1.6" style="stroke:#181818;stroke-width:0.8000000000000002;" width="3.2" x="480.88" y="562.5903"/><text fill="#000000" font-family="sans-serif" font-size="11.2" font-style="italic" lengthAdjust="spacing" textLength="58.0494" x="422.2553" y="576.163">&#171;container&#187;</text><text fill="#000000" font-family="sans-serif" font-size="11.2" font-weight="bold" lengthAdjust="spacing" textLength="62.2858" x="420.1371" y="591.4173">BookQuery</text></g><!--cluster LendingCom--><g id="cluster_LendingCom"><rect fill="none" height="123.2" rx="2" ry="2" style="stroke:#181818;stroke-width:0.8000000000000002;" width="89.6" x="564.08" y="511.3903"/><rect fill="none" height="8" style="stroke:#181818;stroke-width:0.8000000000000002;" width="12" x="637.68" y="515.3903"/><rect fill="none" height="1.6" style="stroke:#181818;stroke-width:0.8000000000000002;" width="3.2" x="636.08" y="516.9903"/><rect fill="none" height="1.6" style="stroke:#181818;stroke-width:0.8000000000000002;" width="3.2" x="636.08" y="520.1903"/><text fill="#000000" font-family="sans-serif" font-size="11.2" font-style="italic" lengthAdjust="spacing" textLength="58.0494" x="579.8553" y="533.763">&#171;container&#187;</text><text fill="#000000" font-family="sans-serif" font-size="11.2" font-weight="bold" lengthAdjust="spacing" textLength="70.5205" x="573.6197" y="549.0173">LendingCom</text></g><!--cluster LendingQuery--><g id="cluster_LendingQuery"><rect fill="none" height="156.8" rx="2" ry="2" style="stroke:#181818;stroke-width:0.8000000000000002;" width="125.6" x="823.28" y="354.5903"/><rect fill="none" height="8" style="stroke:#181818;stroke-width:0.8000000000000002;" width="12" x="932.88" y="358.5903"/><rect fill="none" height="1.6" style="stroke:#181818;stroke-width:0.8000000000000002;" width="3.2" x="931.28" y="360.1903"/><rect fill="none" height="1.6" style="stroke:#181818;stroke-width:0.8000000000000002;" width="3.2" x="931.28" y="363.3903"/><text fill="#000000" font-family="sans-serif" font-size="11.2" font-style="italic" lengthAdjust="spacing" textLength="58.0494" x="857.0553" y="376.963">&#171;container&#187;</text><text fill="#000000" font-family="sans-serif" font-size="11.2" font-weight="bold" lengthAdjust="spacing" textLength="79.2173" x="846.4714" y="392.2173">LendingQuery</text></g><!--cluster ReaderCom--><g id="cluster_ReaderCom"><rect fill="none" height="123.2" rx="2" ry="2" style="stroke:#181818;stroke-width:0.8000000000000002;" width="93.6" x="713.68" y="511.3903"/><rect fill="none" height="8" style="stroke:#181818;stroke-width:0.8000000000000002;" width="12" x="791.28" y="515.3903"/><rect fill="none" height="1.6" style="stroke:#181818;stroke-width:0.8000000000000002;" width="3.2" x="789.68" y="516.9903"/><rect fill="none" height="1.6" style="stroke:#181818;stroke-width:0.8000000000000002;" width="3.2" x="789.68" y="520.1903"/><text fill="#000000" font-family="sans-serif" font-size="11.2" font-style="italic" lengthAdjust="spacing" textLength="58.0494" x="731.4553" y="533.763">&#171;container&#187;</text><text fill="#000000" font-family="sans-serif" font-size="11.2" font-weight="bold" lengthAdjust="spacing" textLength="64.873" x="728.0435" y="549.0173">ReaderCom</text></g><!--cluster ReaderQuery--><g id="cluster_ReaderQuery"><rect fill="none" height="88.8" rx="2" ry="2" style="stroke:#181818;stroke-width:0.8000000000000002;" width="103.2" x="1011.28" y="422.5903"/><rect fill="none" height="8" style="stroke:#181818;stroke-width:0.8000000000000002;" width="12" x="1098.48" y="426.5903"/><rect fill="none" height="1.6" style="stroke:#181818;stroke-width:0.8000000000000002;" width="3.2" x="1096.88" y="428.1903"/><rect fill="none" height="1.6" style="stroke:#181818;stroke-width:0.8000000000000002;" width="3.2" x="1096.88" y="431.3903"/><text fill="#000000" font-family="sans-serif" font-size="11.2" font-style="italic" lengthAdjust="spacing" textLength="58.0494" x="1033.8553" y="444.963">&#171;container&#187;</text><text fill="#000000" font-family="sans-serif" font-size="11.2" font-weight="bold" lengthAdjust="spacing" textLength="73.5697" x="1026.0951" y="460.2173">ReaderQuery</text></g><!--cluster TopQuery--><g id="cluster_TopQuery"><rect fill="none" height="88.8" rx="2" ry="2" style="stroke:#181818;stroke-width:0.8000000000000002;" width="103.2" x="1155.28" y="422.5903"/><rect fill="none" height="8" style="stroke:#181818;stroke-width:0.8000000000000002;" width="12" x="1242.48" y="426.5903"/><rect fill="none" height="1.6" style="stroke:#181818;stroke-width:0.8000000000000002;" width="3.2" x="1240.88" y="428.1903"/><rect fill="none" height="1.6" style="stroke:#181818;stroke-width:0.8000000000000002;" width="3.2" x="1240.88" y="431.3903"/><text fill="#000000" font-family="sans-serif" font-size="11.2" font-style="italic" lengthAdjust="spacing" textLength="58.0494" x="1177.8553" y="444.963">&#171;container&#187;</text><text fill="#000000" font-family="sans-serif" font-size="11.2" font-weight="bold" lengthAdjust="spacing" textLength="55.0142" x="1179.3729" y="460.2173">TopQuery</text></g><text fill="#000000" font-family="sans-serif" font-size="11.2" lengthAdjust="spacing" textLength="24.1695" x="96.7952" y="720.963">auth</text><rect fill="#F1F1F1" height="9.6" style="stroke:#181818;stroke-width:1.2000000000000002;" width="9.6" x="104.08" y="699.3903"/><text fill="#000000" font-family="sans-serif" font-size="11.2" lengthAdjust="spacing" textLength="50.747" x="241.9065" y="720.963">bookCom</text><rect fill="#F1F1F1" height="9.6" style="stroke:#181818;stroke-width:1.2000000000000002;" width="9.6" x="262.48" y="699.3903"/><text fill="#000000" font-family="sans-serif" font-size="11.2" lengthAdjust="spacing" textLength="58.7438" x="389.1081" y="720.963">bookQuery</text><rect fill="#F1F1F1" height="9.6" style="stroke:#181818;stroke-width:1.2000000000000002;" width="9.6" x="413.68" y="699.3903"/><text fill="#000000" font-family="sans-serif" font-size="11.2" lengthAdjust="spacing" textLength="64.0413" x="546.0593" y="720.963">lendingCom</text><rect fill="#F1F1F1" height="9.6" style="stroke:#181818;stroke-width:1.2000000000000002;" width="9.6" x="573.28" y="699.3903"/><text fill="#000000" font-family="sans-serif" font-size="11.2" lengthAdjust="spacing" textLength="72.0381" x="888.4609" y="720.963">lendingQuery</text><rect fill="#F1F1F1" height="9.6" style="stroke:#181818;stroke-width:1.2000000000000002;" width="9.6" x="919.68" y="699.3903"/><text fill="#000000" font-family="sans-serif" font-size="11.2" lengthAdjust="spacing" textLength="59.3822" x="774.7889" y="720.963">readerCom</text><rect fill="#F1F1F1" height="9.6" style="stroke:#181818;stroke-width:1.2000000000000002;" width="9.6" x="799.68" y="699.3903"/><text fill="#000000" font-family="sans-serif" font-size="11.2" lengthAdjust="spacing" textLength="67.3789" x="1066.3905" y="720.963">readerQuery</text><rect fill="#F1F1F1" height="9.6" style="stroke:#181818;stroke-width:1.2000000000000002;" width="9.6" x="1095.28" y="699.3903"/><text fill="#000000" font-family="sans-serif" font-size="11.2" lengthAdjust="spacing" textLength="50.0302" x="1223.8649" y="720.963">topQuery</text><rect fill="#F1F1F1" height="9.6" style="stroke:#181818;stroke-width:1.2000000000000002;" width="9.6" x="1244.08" y="699.3903"/><text fill="#000000" font-family="sans-serif" font-size="11.2" lengthAdjust="spacing" textLength="2.912" x="626.624" y="50.9087">&#160;</text><rect fill="#F1F1F1" height="9.6" style="stroke:#181818;stroke-width:1.2000000000000002;" width="9.6" x="623.28" y="63.7903"/><text fill="#000000" font-family="sans-serif" font-size="11.2" lengthAdjust="spacing" textLength="2.912" x="557.824" y="212.163">&#160;</text><rect fill="#F1F1F1" height="9.6" style="stroke:#181818;stroke-width:1.2000000000000002;" width="9.6" x="554.48" y="190.5903"/><text fill="#000000" font-family="sans-serif" font-size="11.2" lengthAdjust="spacing" textLength="2.912" x="105.824" y="528.163">&#160;</text><rect fill="#F1F1F1" height="9.6" style="stroke:#181818;stroke-width:1.2000000000000002;" width="9.6" x="102.48" y="506.5903"/><text fill="#000000" font-family="sans-serif" font-size="11.2" lengthAdjust="spacing" textLength="2.912" x="265.824" y="493.7087">&#160;</text><rect fill="#F1F1F1" height="9.6" style="stroke:#181818;stroke-width:1.2000000000000002;" width="9.6" x="262.48" y="506.5903"/><text fill="#000000" font-family="sans-serif" font-size="11.2" lengthAdjust="spacing" textLength="2.912" x="265.824" y="651.363">&#160;</text><rect fill="#F1F1F1" height="9.6" style="stroke:#181818;stroke-width:1.2000000000000002;" width="9.6" x="262.48" y="629.7903"/><text fill="#000000" font-family="sans-serif" font-size="11.2" lengthAdjust="spacing" textLength="2.912" x="417.024" y="651.363">&#160;</text><rect fill="#F1F1F1" height="9.6" style="stroke:#181818;stroke-width:1.2000000000000002;" width="9.6" x="413.68" y="629.7903"/><text fill="#000000" font-family="sans-serif" font-size="11.2" lengthAdjust="spacing" textLength="2.912" x="577.024" y="493.7087">&#160;</text><rect fill="#F1F1F1" height="9.6" style="stroke:#181818;stroke-width:1.2000000000000002;" width="9.6" x="573.68" y="506.5903"/><text fill="#000000" font-family="sans-serif" font-size="11.2" lengthAdjust="spacing" textLength="2.912" x="577.024" y="651.363">&#160;</text><rect fill="#F1F1F1" height="9.6" style="stroke:#181818;stroke-width:1.2000000000000002;" width="9.6" x="573.68" y="629.7903"/><text fill="#000000" font-family="sans-serif" font-size="11.2" lengthAdjust="spacing" textLength="2.912" x="887.424" y="336.9087">&#160;</text><rect fill="#F1F1F1" height="9.6" style="stroke:#181818;stroke-width:1.2000000000000002;" width="9.6" x="884.08" y="349.7903"/><text fill="#000000" font-family="sans-serif" font-size="11.2" lengthAdjust="spacing" textLength="2.912" x="933.024" y="528.163">&#160;</text><rect fill="#F1F1F1" height="9.6" style="stroke:#181818;stroke-width:1.2000000000000002;" width="9.6" x="929.68" y="506.5903"/><text fill="#000000" font-family="sans-serif" font-size="11.2" lengthAdjust="spacing" textLength="2.912" x="726.624" y="493.7087">&#160;</text><rect fill="#F1F1F1" height="9.6" style="stroke:#181818;stroke-width:1.2000000000000002;" width="9.6" x="723.28" y="506.5903"/><text fill="#000000" font-family="sans-serif" font-size="11.2" lengthAdjust="spacing" textLength="2.912" x="791.424" y="651.363">&#160;</text><rect fill="#F1F1F1" height="9.6" style="stroke:#181818;stroke-width:1.2000000000000002;" width="9.6" x="788.08" y="629.7903"/><text fill="#000000" font-family="sans-serif" font-size="11.2" lengthAdjust="spacing" textLength="2.912" x="1098.624" y="528.163">&#160;</text><rect fill="#F1F1F1" height="9.6" style="stroke:#181818;stroke-width:1.2000000000000002;" width="9.6" x="1095.28" y="506.5903"/><text fill="#000000" font-family="sans-serif" font-size="11.2" lengthAdjust="spacing" textLength="2.912" x="1242.624" y="528.163">&#160;</text><rect fill="#F1F1F1" height="9.6" style="stroke:#181818;stroke-width:1.2000000000000002;" width="9.6" x="1239.28" y="506.5903"/><!--entity authapi--><g id="elem_authapi"><ellipse cx="108.88" cy="792.9903" fill="#F1F1F1" rx="6.4" ry="6.4" style="stroke:#181818;stroke-width:0.4000000000000001;"/><text fill="#000000" font-family="sans-serif" font-size="11.2" lengthAdjust="spacing" textLength="76.1261" x="70.8169" y="818.563">HTTP Auth API</text></g><!--entity bookapic--><g id="elem_bookapic"><ellipse cx="267.28" cy="792.9903" fill="#F1F1F1" rx="6.4" ry="6.4" style="stroke:#181818;stroke-width:0.4000000000000001;"/><text fill="#000000" font-family="sans-serif" font-size="11.2" lengthAdjust="spacing" textLength="102.222" x="216.169" y="818.563">HTTP BookCom API</text></g><!--entity bookapiq--><g id="elem_bookapiq"><ellipse cx="418.48" cy="792.9903" fill="#F1F1F1" rx="6.4" ry="6.4" style="stroke:#181818;stroke-width:0.4000000000000001;"/><text fill="#000000" font-family="sans-serif" font-size="11.2" lengthAdjust="spacing" textLength="110.2188" x="363.3706" y="818.563">HTTP BookQuery API</text></g><!--entity lendingapic--><g id="elem_lendingapic"><ellipse cx="578.48" cy="792.9903" fill="#F1F1F1" rx="6.4" ry="6.4" style="stroke:#181818;stroke-width:0.4000000000000001;"/><text fill="#000000" font-family="sans-serif" font-size="11.2" lengthAdjust="spacing" textLength="118.1035" x="519.4282" y="818.563">HTTP LendingCom API</text></g><!--entity lendingapiq--><g id="elem_lendingapiq"><ellipse cx="928.88" cy="792.9903" fill="#F1F1F1" rx="6.4" ry="6.4" style="stroke:#181818;stroke-width:0.4000000000000001;"/><text fill="#000000" font-family="sans-serif" font-size="11.2" lengthAdjust="spacing" textLength="126.1003" x="865.8298" y="818.563">HTTP LendingQuery API</text></g><!--entity readerapic--><g id="elem_readerapic"><ellipse cx="793.68" cy="792.9903" fill="#F1F1F1" rx="6.4" ry="6.4" style="stroke:#181818;stroke-width:0.4000000000000001;"/><text fill="#000000" font-family="sans-serif" font-size="11.2" lengthAdjust="spacing" textLength="112.806" x="737.277" y="818.563">HTTP ReaderCom API</text></g><!--entity readerapiq--><g id="elem_readerapiq"><ellipse cx="1100.08" cy="792.9903" fill="#F1F1F1" rx="6.4" ry="6.4" style="stroke:#181818;stroke-width:0.4000000000000001;"/><text fill="#000000" font-family="sans-serif" font-size="11.2" lengthAdjust="spacing" textLength="120.8027" x="1039.6786" y="818.563">HTTP ReaderQuery API</text></g><!--entity topapiq--><g id="elem_topapiq"><ellipse cx="1248.88" cy="792.9903" fill="#F1F1F1" rx="6.4" ry="6.4" style="stroke:#181818;stroke-width:0.4000000000000001;"/><text fill="#000000" font-family="sans-serif" font-size="11.2" lengthAdjust="spacing" textLength="103.2972" x="1197.2314" y="818.563">HTTP TopQuery API</text></g><!--link Auth to Auth--><!--link BookCom to BookCom--><!--link BookQuery to BookCom--><!--link LendingCom to BookCom--><!--link TopQuery to LendingCom--><!--link LendingCom to LendingCom--><!--link LendingQuery to LendingCom--><!--link ReaderCom to ReaderCom--><!--link ReaderQuery to ReaderCom--><!--link LendingCom to ReaderCom--><!--link innerportoutmb to innerportoutauth--><g id="link_innerportoutmb_innerportoutauth"><path d="M554.088,196.1183 C513.208,195.7023 244.88,195.4703 244.88,261.3903 C244.88,261.3903 244.88,261.3903 244.88,397.3903 C244.88,444.8783 225.32,458.9583 187.28,487.3903 C163.304,505.3103 125.792,509.4223 112.312,510.3343 " fill="none" id="innerportoutmb-innerportoutauth" style="stroke:#181818;stroke-width:0.8000000000000002;"/><text fill="#000000" font-family="sans-serif" font-size="10.4" lengthAdjust="spacing" textLength="55.0577" x="251.28" y="316.9079">Publish API</text><path d="M239.2231,403.0471 A8,8 0 0 0 250.5369 403.0471" fill="none" style="stroke:#181818;stroke-width:1.2000000000000002;"/><ellipse cx="244.88" cy="397.3903" fill="#FFFFFF" rx="4.8" ry="4.8" style="stroke:#181818;stroke-width:1.2000000000000002;"/></g><!--link innerportinmb to innerportoutauth--><g id="link_innerportinmb_innerportoutauth"><path d="M622.976,69.7263 C573.056,73.0703 173.68,101.3263 173.68,149.3903 C173.68,149.3903 173.68,149.3903 173.68,262.9903 C173.68,292.6223 165.888,300.0063 151.28,325.7903 C125.624,371.0623 94.448,367.2063 76.88,416.1903 C66.2,445.9743 62.848,459.0303 76.88,487.3903 C82.176,498.1023 95.056,505.2223 102.232,508.5023 " fill="none" id="innerportinmb-innerportoutauth" style="stroke:#181818;stroke-width:0.8000000000000002;"/><text fill="#000000" font-family="sans-serif" font-size="10.4" lengthAdjust="spacing" textLength="48.6824" x="180.08" y="266.5079">Notify API</text><path d="M179.3369,257.3334 A8,8 0 0 0 168.0231 257.3334" fill="none" style="stroke:#181818;stroke-width:1.2000000000000002;"/><ellipse cx="173.68" cy="262.9903" fill="#FFFFFF" rx="4.8" ry="4.8" style="stroke:#181818;stroke-width:1.2000000000000002;"/></g><!--link innerportoutmb to innerportoutbookc--><g id="link_innerportoutmb_innerportoutbookc"><path d="M554.208,196.5983 C521.864,199.3343 345.68,216.3183 345.68,261.3903 C345.68,261.3903 345.68,261.3903 345.68,540.9903 C345.68,576.2063 354.136,593.2543 329.68,618.5903 C314.04,634.7983 284.232,634.8943 272.352,634.2063 " fill="none" id="innerportoutmb-innerportoutbookc" style="stroke:#181818;stroke-width:0.8000000000000002;"/><text fill="#000000" font-family="sans-serif" font-size="10.4" lengthAdjust="spacing" textLength="55.0577" x="352.08" y="400.9079">Publish API</text><path d="M340.0231,301.9971 A8,8 0 0 0 351.3369 301.9971" fill="none" style="stroke:#181818;stroke-width:1.2000000000000002;"/><ellipse cx="345.68" cy="296.3403" fill="#FFFFFF" rx="4.8" ry="4.8" style="stroke:#181818;stroke-width:1.2000000000000002;"/></g><!--link innerportinmb to innerportoutbookc--><g id="link_innerportinmb_innerportoutbookc"><path d="M623.04,69.5743 C568.2,71.6703 84.08,91.7583 84.08,149.3903 C84.08,149.3903 84.08,149.3903 84.08,262.9903 C84.08,381.5423 4.8,426.3183 64.08,528.9903 C103.904,597.9663 145.864,587.7023 219.28,618.5903 C236.296,625.7503 242.056,623.1423 259.28,629.7903 C260.208,630.1503 261.168,630.5743 262.096,631.0223 " fill="none" id="innerportinmb-innerportoutbookc" style="stroke:#181818;stroke-width:0.8000000000000002;"/><text fill="#000000" font-family="sans-serif" font-size="10.4" lengthAdjust="spacing" textLength="48.6824" x="88.08" y="316.9079">Notify API</text><path d="M339.1749,93.7365 A8,8 0 0 0 338.0753 82.4764" fill="none" style="stroke:#181818;stroke-width:1.2000000000000002;"/><ellipse cx="332.995" cy="88.6563" fill="#FFFFFF" rx="4.8" ry="4.8" style="stroke:#181818;stroke-width:1.2000000000000002;"/></g><!--link innerportinmb to innerportoutbookq--><g id="link_innerportinmb_innerportoutbookq"><path d="M623.096,69.2063 C593.448,68.3663 441.68,68.0383 441.68,149.3903 C441.68,149.3903 441.68,149.3903 441.68,355.3903 C441.68,443.6143 402.576,459.8943 391.28,547.3903 C387.232,578.7743 375.264,591.2943 391.28,618.5903 C396.04,626.7103 406.896,630.8143 413.36,632.6063 " fill="none" id="innerportinmb-innerportoutbookq" style="stroke:#181818;stroke-width:0.8000000000000002;"/><text fill="#000000" font-family="sans-serif" font-size="10.4" lengthAdjust="spacing" textLength="48.6824" x="448.08" y="316.9079">Notify API</text><path d="M447.3369,349.7334 A8,8 0 0 0 436.0231 349.7334" fill="none" style="stroke:#181818;stroke-width:1.2000000000000002;"/><ellipse cx="441.68" cy="355.3903" fill="#FFFFFF" rx="4.8" ry="4.8" style="stroke:#181818;stroke-width:1.2000000000000002;"/></g><!--link innerportoutmb to innerportinlendingc--><g id="link_innerportoutmb_innerportinlendingc"><path d="M559.28,200.3103 C559.28,210.6063 559.28,238.3023 559.28,261.3903 C559.28,261.3903 559.28,261.3903 559.28,397.3903 C559.28,440.4463 572.952,491.4303 577.224,506.3183 " fill="none" id="innerportoutmb-innerportinlendingc" style="stroke:#181818;stroke-width:0.8000000000000002;"/><text fill="#000000" font-family="sans-serif" font-size="10.4" lengthAdjust="spacing" textLength="55.0577" x="565.68" y="316.9079">Publish API</text><path d="M553.6231,403.0471 A8,8 0 0 0 564.9369 403.0471" fill="none" style="stroke:#181818;stroke-width:1.2000000000000002;"/><ellipse cx="559.28" cy="397.3903" fill="#FFFFFF" rx="4.8" ry="4.8" style="stroke:#181818;stroke-width:1.2000000000000002;"/></g><!--link innerportinmb to innerportinlendingc--><g id="link_innerportinmb_innerportinlendingc"><path d="M629.952,73.6783 C636.096,87.9103 655.28,133.6223 655.28,149.3903 C655.28,149.3903 655.28,149.3903 655.28,397.3903 C655.28,448.6863 600.608,494.0063 583.52,506.9183 " fill="none" id="innerportinmb-innerportinlendingc" style="stroke:#181818;stroke-width:0.8000000000000002;"/><text fill="#000000" font-family="sans-serif" font-size="10.4" lengthAdjust="spacing" textLength="48.6824" x="661.68" y="266.5079">Notify API</text><path d="M660.9369,391.7334 A8,8 0 0 0 649.6231 391.7334" fill="none" style="stroke:#181818;stroke-width:1.2000000000000002;"/><ellipse cx="655.28" cy="397.3903" fill="#FFFFFF" rx="4.8" ry="4.8" style="stroke:#181818;stroke-width:1.2000000000000002;"/></g><!--link innerportinmb to innerportoutlendingq--><g id="link_innerportinmb_innerportoutlendingq"><path d="M629.816,73.7263 C631.232,76.9983 633.432,81.4943 636.08,84.9903 C735.64,216.3103 808.92,205.3583 908.08,336.9903 C931.808,368.4863 938.944,377.8303 948.08,416.1903 C955.416,446.9743 956.368,456.8543 948.08,487.3903 C946.12,494.5983 941.296,501.8623 937.96,506.2943 " fill="none" id="innerportinmb-innerportoutlendingq" style="stroke:#181818;stroke-width:0.8000000000000002;"/><text fill="#000000" font-family="sans-serif" font-size="10.4" lengthAdjust="spacing" textLength="48.6824" x="860.08" y="266.5079">Notify API</text><path d="M770.8298,202.9967 A8,8 0 0 0 764.3535 212.2735" fill="none" style="stroke:#181818;stroke-width:1.2000000000000002;"/><ellipse cx="772.23" cy="210.8733" fill="#FFFFFF" rx="4.8" ry="4.8" style="stroke:#181818;stroke-width:1.2000000000000002;"/></g><!--link innerportoutmb to innerportinreaderc--><g id="link_innerportoutmb_innerportinreaderc"><path d="M564.376,196.2543 C586.544,196.8143 675.544,202.0143 722.48,248.9903 C726.576,253.0863 726.48,255.5983 726.48,261.3903 C726.48,261.3903 726.48,261.3903 726.48,397.3903 C726.48,439.8463 727.616,491.2463 727.976,506.2703 " fill="none" id="innerportoutmb-innerportinreaderc" style="stroke:#181818;stroke-width:0.8000000000000002;"/><text fill="#000000" font-family="sans-serif" font-size="10.4" lengthAdjust="spacing" textLength="55.0577" x="732.88" y="316.9079">Publish API</text><path d="M720.8231,403.0471 A8,8 0 0 0 732.1369 403.0471" fill="none" style="stroke:#181818;stroke-width:1.2000000000000002;"/><ellipse cx="726.48" cy="397.3903" fill="#FFFFFF" rx="4.8" ry="4.8" style="stroke:#181818;stroke-width:1.2000000000000002;"/></g><!--link innerportinmb to innerportoutreaderc--><g id="link_innerportinmb_innerportoutreaderc"><path d="M629.128,73.6623 C630.24,77.2543 632.36,82.2383 636.08,84.9903 C701.712,133.5103 997.68,67.7663 997.68,149.3903 C997.68,149.3903 997.68,149.3903 997.68,540.9903 C997.68,636.9503 887.544,588.5903 800.88,629.7903 C799.872,630.2703 798.792,630.7983 797.776,631.3023 " fill="none" id="innerportinmb-innerportoutreaderc" style="stroke:#181818;stroke-width:0.8000000000000002;"/><text fill="#000000" font-family="sans-serif" font-size="10.4" lengthAdjust="spacing" textLength="48.6824" x="1004.08" y="316.9079">Notify API</text><path d="M634.8966,77.0783 A8,8 0 0 0 628.168 86.1736" fill="none" style="stroke:#181818;stroke-width:1.2000000000000002;"/><ellipse cx="636.08" cy="84.9903" fill="#FFFFFF" rx="4.8" ry="4.8" style="stroke:#181818;stroke-width:1.2000000000000002;"/></g><!--link innerportinmb to innerportoutreaderq--><g id="link_innerportinmb_innerportoutreaderq"><path d="M629.056,73.7663 C630.12,77.4303 632.216,82.4543 636.08,84.9903 C704.736,130.0623 938.272,60.9423 1004.88,108.9903 C1124.4,195.2063 1101.424,271.5583 1129.68,416.1903 C1135.744,447.2463 1143.528,458.9343 1129.68,487.3903 C1124.592,497.8383 1112.272,504.9743 1105.232,508.3503 " fill="none" id="innerportinmb-innerportoutreaderq" style="stroke:#181818;stroke-width:0.8000000000000002;"/><text fill="#000000" font-family="sans-serif" font-size="10.4" lengthAdjust="spacing" textLength="48.6824" x="1114.48" y="266.5079">Notify API</text><path d="M815.1844,90.6558 A8,8 0 0 0 816.0295 101.9379" fill="none" style="stroke:#181818;stroke-width:1.2000000000000002;"/><ellipse cx="821.248" cy="95.8743" fill="#FFFFFF" rx="4.8" ry="4.8" style="stroke:#181818;stroke-width:1.2000000000000002;"/></g><!--link innerportinmb to innerportouttopq--><g id="link_innerportinmb_innerportouttopq"><path d="M629.056,73.7663 C630.12,77.4303 632.208,82.4543 636.08,84.9903 C706.096,130.8943 930.496,90.1663 1012.08,108.9903 C1033.056,113.8303 1039.048,115.3423 1056.88,127.3903 C1119.384,169.6223 1132.904,186.5903 1175.28,248.9903 C1219.272,313.7663 1195.64,350.9263 1247.28,409.7903 C1250.856,413.8703 1255.032,411.4543 1257.68,416.1903 C1273.12,443.8143 1268.808,457.7663 1257.68,487.3903 C1256.352,490.9263 1254.16,490.6303 1252.08,493.7903 C1249.456,497.7823 1247.192,502.7743 1245.744,506.2783 " fill="none" id="innerportinmb-innerportouttopq" style="stroke:#181818;stroke-width:0.8000000000000002;"/><text fill="#000000" font-family="sans-serif" font-size="10.4" lengthAdjust="spacing" textLength="48.6824" x="1196.08" y="266.5079">Notify API</text><path d="M1007.8398,102.2064 A8,8 0 0 0 1005.2962 113.2305" fill="none" style="stroke:#181818;stroke-width:1.2000000000000002;"/><ellipse cx="1012.08" cy="108.9903" fill="#FFFFFF" rx="4.8" ry="4.8" style="stroke:#181818;stroke-width:1.2000000000000002;"/></g><!--link innerportoutauth to portauth--><g id="link_innerportoutauth_portauth"><path d="M107.32,516.5423 C107.528,542.2223 108.632,673.6943 108.848,699.1263 " fill="none" id="innerportoutauth-portauth" style="stroke:#181818;stroke-width:0.8000000000000002;"/></g><!--link innerportoutbookc to portbookc--><g id="link_innerportoutbookc_portbookc"><path d="M267.28,639.4383 C267.28,651.5663 267.28,687.4623 267.28,699.4463 " fill="none" id="innerportoutbookc-portbookc" style="stroke:#181818;stroke-width:0.8000000000000002;"/></g><!--link innerportoutbookq to portbookq--><g id="link_innerportoutbookq_portbookq"><path d="M418.48,639.4383 C418.48,651.5663 418.48,687.4623 418.48,699.4463 " fill="none" id="innerportoutbookq-portbookq" style="stroke:#181818;stroke-width:0.8000000000000002;"/></g><!--link innerportoutlendingc to portlendingc--><g id="link_innerportoutlendingc_portlendingc"><path d="M578.48,639.4383 C578.48,651.5663 578.48,687.4623 578.48,699.4463 " fill="none" id="innerportoutlendingc-portlendingc" style="stroke:#181818;stroke-width:0.8000000000000002;"/></g><!--link innerportoutlendingq to portlendingq--><g id="link_innerportoutlendingq_portlendingq"><path d="M934.264,516.5423 C932.968,542.3343 926.312,674.8383 925.08,699.4543 " fill="none" id="innerportoutlendingq-portlendingq" style="stroke:#181818;stroke-width:0.8000000000000002;"/></g><!--link innerportoutreaderc to portreaderc--><g id="link_innerportoutreaderc_portreaderc"><path d="M793.592,639.4383 C795.736,651.5663 802.072,687.4623 804.184,699.4463 " fill="none" id="innerportoutreaderc-portreaderc" style="stroke:#181818;stroke-width:0.8000000000000002;"/></g><!--link innerportoutreaderq to portreaderq--><g id="link_innerportoutreaderq_portreaderq"><path d="M1100.08,516.5423 C1100.08,542.3343 1100.08,674.8383 1100.08,699.4543 " fill="none" id="innerportoutreaderq-portreaderq" style="stroke:#181818;stroke-width:0.8000000000000002;"/></g><!--link innerportouttopq to porttopq--><g id="link_innerportouttopq_porttopq"><path d="M1246.392,516.5423 C1255.536,534.3103 1288.016,603.1023 1273.68,658.5903 C1269.408,675.1183 1257.592,692.0543 1251.952,699.4863 " fill="none" id="innerportouttopq-porttopq" style="stroke:#181818;stroke-width:0.8000000000000002;"/></g><!--link portauth to authapi--><g id="link_portauth_authapi"><path d="M108.88,709.1983 C108.88,723.3503 108.88,769.2943 108.88,786.0223 " fill="none" id="portauth-authapi" style="stroke:#181818;stroke-width:0.8000000000000002;"/></g><!--link portbookc to bookapic--><g id="link_portbookc_bookapic"><path d="M267.28,708.9663 C267.28,722.8223 267.28,769.1023 267.28,785.9743 " fill="none" id="portbookc-bookapic" style="stroke:#181818;stroke-width:0.8000000000000002;"/></g><!--link portbookq to bookapiq--><g id="link_portbookq_bookapiq"><path d="M418.48,708.9663 C418.48,722.8223 418.48,769.1023 418.48,785.9743 " fill="none" id="portbookq-bookapiq" style="stroke:#181818;stroke-width:0.8000000000000002;"/></g><!--link portlendingc to lendingapic--><g id="link_portlendingc_lendingapic"><path d="M578.48,708.9663 C578.48,722.8223 578.48,769.1023 578.48,785.9743 " fill="none" id="portlendingc-lendingapic" style="stroke:#181818;stroke-width:0.8000000000000002;"/></g><!--link portlendingq to lendingapiq--><g id="link_portlendingq_lendingapiq"><path d="M925.064,708.9663 C925.696,722.8223 927.824,769.1023 928.592,785.9743 " fill="none" id="portlendingq-lendingapiq" style="stroke:#181818;stroke-width:0.8000000000000002;"/></g><!--link portreaderc to readerapic--><g id="link_portreaderc_readerapic"><path d="M804.368,708.9663 C802.592,722.8223 796.648,769.1023 794.48,785.9743 " fill="none" id="portreaderc-readerapic" style="stroke:#181818;stroke-width:0.8000000000000002;"/></g><!--link portreaderq to readerapiq--><g id="link_portreaderq_readerapiq"><path d="M1100.08,708.9663 C1100.08,722.8223 1100.08,769.1023 1100.08,785.9743 " fill="none" id="portreaderq-readerapiq" style="stroke:#181818;stroke-width:0.8000000000000002;"/></g><!--link porttopq to topapiq--><g id="link_porttopq_topapiq"><path d="M1248.88,708.9663 C1248.88,722.8223 1248.88,769.1023 1248.88,785.9743 " fill="none" id="porttopq-topapiq" style="stroke:#181818;stroke-width:0.8000000000000002;"/></g><!--SRC=[fPNDRjim3CVlVWh1bxK7ByMEHL6WtMK3qYBRWbs67PH4IuJQbZ-K0S6mHzffZz0NcsHzaNQKU8wB7YB-z1T9KUIRdPHLUpkRLJajvRx8twv5CLF_bIXPARCDfzk65aaYkSmP-SfRISdyzU-MhobvVltpa-NaNPBu3IITFtr9oTrTUsWbA-xl2Ms9MYA_4g8-m3snjgLRHXuRyS8QlMKjIabvoHgro-3wgqGZUKbIzQUaUAdiPgbO8KRivG1IQvRwdVJFVzZBtUbJ8ufKROneFWhnybuK4u9PgPthCQS7yFZnd_QiEKoAIolN4UKvApUyt4wBBJURHuM7sAWVPu8Suqqze4zx5ClCPqOth9cMcARREoel48qvCJ8h9q-8XRaKrVJAag92klhf1P-oRpk-sR3oUvvPMmVPjuJCTksalNCpIeH2xf3mi-U6Y_SqDLODbcr7-gevbW9l78kEr0NUcdl0VP9aDzSP6RIwS56t95tiLpblT-HXyJ754heVa-pg9jFV6PLd8VcFmn4HuCUWvrtgHLyawiGPZNfg8A4H_byKKO4f4RXkDZ42suOkkGSWCJaAswikqj1DQRWxWQqC5wvgQjhWnx-ZLhRDO2pCQSXrB_K8MICo3tq4S6Wqzj2WYs6is-3kO54uMZ09l4KiLfMsLGQgw_U3SaBPrBU1qnbxgvuC6OqzIOJM0nIyde2YhCPUIfyUQiEgzZJCRAnyU_1GsTIfnqnkrI2zkYRfX-LoOQQfBbwTVfrEMl5WTKFG0Jer2bXZmbnWZwa30oQRWsmgi1OST4T8e1WcbSDC0h0Uc6z33gYvSUqXbQQEK9-hCfr3bnvVJthHfyIN3bYj4rWbsW03XpM1RMQVAmjb0k61wqOMiwUxSBLiG_W7]--></g></svg>