<svg xmlns="http://www.w3.org/2000/svg" xmlns:xlink="http://www.w3.org/1999/xlink" contentStyleType="text/css" height="824.8px" preserveAspectRatio="none" style="width:1331px;height:824px;background:#FFFFFF;" version="1.1" viewBox="0 0 1331 824" width="1331.2px" zoomAndPan="magnify"><title>Vista L&#243;gica N&#237;vel 2</title><defs/><g><text fill="#000000" font-family="sans-serif" font-size="11.2" font-weight="bold" lengthAdjust="spacing" textLength="106.772" x="606.614" y="19.9727">Vista L&#243;gica N&#237;vel 2</text><!--cluster LMS--><g id="cluster_LMS"><rect fill="none" height="664.8" rx="2" ry="2" style="stroke:#181818;stroke-width:0.8000000000000002;" width="1320.8" x="5.6" y="39.3903"/><rect fill="none" height="8" style="stroke:#181818;stroke-width:0.8000000000000002;" width="12" x="1310.4" y="43.3903"/><rect fill="none" height="1.6" style="stroke:#181818;stroke-width:0.8000000000000002;" width="3.2" x="1308.8" y="44.9903"/><rect fill="none" height="1.6" style="stroke:#181818;stroke-width:0.8000000000000002;" width="3.2" x="1308.8" y="48.1903"/><text fill="#000000" font-family="sans-serif" font-size="11.2" font-style="italic" lengthAdjust="spacing" textLength="44.699" x="643.6505" y="61.763">&#171;system&#187;</text><text fill="#000000" font-family="sans-serif" font-size="11.2" font-weight="bold" lengthAdjust="spacing" textLength="23.2259" x="654.387" y="77.0173">LMS</text></g><!--cluster Message Broker--><g id="cluster_Message Broker"><rect fill="none" height="126.8" rx="2" ry="2" style="stroke:#181818;stroke-width:0.8000000000000002;" width="134.4" x="540" y="68.5903"/><rect fill="none" height="8" style="stroke:#181818;stroke-width:0.8000000000000002;" width="12" x="658.4" y="72.5903"/><rect fill="none" height="1.6" style="stroke:#181818;stroke-width:0.8000000000000002;" width="3.2" x="656.8" y="74.1903"/><rect fill="none" height="1.6" style="stroke:#181818;stroke-width:0.8000000000000002;" width="3.2" x="656.8" y="77.3903"/><text fill="#000000" font-family="sans-serif" font-size="11.2" font-style="italic" lengthAdjust="spacing" textLength="58.0494" x="578.1753" y="90.963">&#171;container&#187;</text><text fill="#000000" font-family="sans-serif" font-size="11.2" font-weight="bold" lengthAdjust="spacing" textLength="89.7593" x="562.3204" y="106.2173">Message Broker</text></g><!--cluster Auth--><g id="cluster_Auth"><rect fill="none" height="88.8" rx="2" ry="2" style="stroke:#181818;stroke-width:0.8000000000000002;" width="78.4" x="69.6" y="422.5903"/><rect fill="none" height="8" style="stroke:#181818;stroke-width:0.8000000000000002;" width="12" x="132" y="426.5903"/><rect fill="none" height="1.6" style="stroke:#181818;stroke-width:0.8000000000000002;" width="3.2" x="130.4" y="428.1903"/><rect fill="none" height="1.6" style="stroke:#181818;stroke-width:0.8000000000000002;" width="3.2" x="130.4" y="431.3903"/><text fill="#000000" font-family="sans-serif" font-size="11.2" font-style="italic" lengthAdjust="spacing" textLength="58.0494" x="79.7753" y="444.963">&#171;container&#187;</text><text fill="#000000" font-family="sans-serif" font-size="11.2" font-weight="bold" lengthAdjust="spacing" textLength="26.4431" x="95.5784" y="460.2173">Auth</text></g><!--cluster Recom--><g id="cluster_Recom"><rect fill="none" height="88.8" rx="2" ry="2" style="stroke:#181818;stroke-width:0.8000000000000002;" width="83.2" x="207.2" y="422.5903"/><rect fill="none" height="8" style="stroke:#181818;stroke-width:0.8000000000000002;" width="12" x="274.4" y="426.5903"/><rect fill="none" height="1.6" style="stroke:#181818;stroke-width:0.8000000000000002;" width="3.2" x="272.8" y="428.1903"/><rect fill="none" height="1.6" style="stroke:#181818;stroke-width:0.8000000000000002;" width="3.2" x="272.8" y="431.3903"/><text fill="#000000" font-family="sans-serif" font-size="11.2" font-style="italic" lengthAdjust="spacing" textLength="58.0494" x="219.7753" y="444.963">&#171;container&#187;</text><text fill="#000000" font-family="sans-serif" font-size="11.2" font-weight="bold" lengthAdjust="spacing" textLength="37.6571" x="229.9715" y="460.2173">Recom</text></g><!--cluster BookCom--><g id="cluster_BookCom"><rect fill="none" height="123.2" rx="2" ry="2" style="stroke:#181818;stroke-width:0.8000000000000002;" width="120.8" x="312" y="511.3903"/><rect fill="none" height="8" style="stroke:#181818;stroke-width:0.8000000000000002;" width="12" x="416.8" y="515.3903"/><rect fill="none" height="1.6" style="stroke:#181818;stroke-width:0.8000000000000002;" width="3.2" x="415.2" y="516.9903"/><rect fill="none" height="1.6" style="stroke:#181818;stroke-width:0.8000000000000002;" width="3.2" x="415.2" y="520.1903"/><text fill="#000000" font-family="sans-serif" font-size="11.2" font-style="italic" lengthAdjust="spacing" textLength="58.0494" x="343.3753" y="533.763">&#171;container&#187;</text><text fill="#000000" font-family="sans-serif" font-size="11.2" font-weight="bold" lengthAdjust="spacing" textLength="53.589" x="345.6055" y="549.0173">BookCom</text></g><!--cluster BookQuery--><g id="cluster_BookQuery"><rect fill="none" height="80.8" rx="2" ry="2" style="stroke:#181818;stroke-width:0.8000000000000002;" width="76.8" x="452" y="553.7903"/><rect fill="none" height="8" style="stroke:#181818;stroke-width:0.8000000000000002;" width="12" x="512.8" y="557.7903"/><rect fill="none" height="1.6" style="stroke:#181818;stroke-width:0.8000000000000002;" width="3.2" x="511.2" y="559.3903"/><rect fill="none" height="1.6" style="stroke:#181818;stroke-width:0.8000000000000002;" width="3.2" x="511.2" y="562.5903"/><text fill="#000000" font-family="sans-serif" font-size="11.2" font-style="italic" lengthAdjust="spacing" textLength="58.0494" x="461.3753" y="576.163">&#171;container&#187;</text><text fill="#000000" font-family="sans-serif" font-size="11.2" font-weight="bold" lengthAdjust="spacing" textLength="62.2858" x="459.2571" y="591.4173">BookQuery</text></g><!--cluster LendingCom--><g id="cluster_LendingCom"><rect fill="none" height="123.2" rx="2" ry="2" style="stroke:#181818;stroke-width:0.8000000000000002;" width="89.6" x="635.2" y="511.3903"/><rect fill="none" height="8" style="stroke:#181818;stroke-width:0.8000000000000002;" width="12" x="708.8" y="515.3903"/><rect fill="none" height="1.6" style="stroke:#181818;stroke-width:0.8000000000000002;" width="3.2" x="707.2" y="516.9903"/><rect fill="none" height="1.6" style="stroke:#181818;stroke-width:0.8000000000000002;" width="3.2" x="707.2" y="520.1903"/><text fill="#000000" font-family="sans-serif" font-size="11.2" font-style="italic" lengthAdjust="spacing" textLength="58.0494" x="650.9753" y="533.763">&#171;container&#187;</text><text fill="#000000" font-family="sans-serif" font-size="11.2" font-weight="bold" lengthAdjust="spacing" textLength="70.5205" x="644.7397" y="549.0173">LendingCom</text></g><!--cluster LendingQuery--><g id="cluster_LendingQuery"><rect fill="none" height="156.8" rx="2" ry="2" style="stroke:#181818;stroke-width:0.8000000000000002;" width="125.6" x="894.4" y="354.5903"/><rect fill="none" height="8" style="stroke:#181818;stroke-width:0.8000000000000002;" width="12" x="1004" y="358.5903"/><rect fill="none" height="1.6" style="stroke:#181818;stroke-width:0.8000000000000002;" width="3.2" x="1002.4" y="360.1903"/><rect fill="none" height="1.6" style="stroke:#181818;stroke-width:0.8000000000000002;" width="3.2" x="1002.4" y="363.3903"/><text fill="#000000" font-family="sans-serif" font-size="11.2" font-style="italic" lengthAdjust="spacing" textLength="58.0494" x="928.1753" y="376.963">&#171;container&#187;</text><text fill="#000000" font-family="sans-serif" font-size="11.2" font-weight="bold" lengthAdjust="spacing" textLength="79.2173" x="917.5914" y="392.2173">LendingQuery</text></g><!--cluster ReaderCom--><g id="cluster_ReaderCom"><rect fill="none" height="123.2" rx="2" ry="2" style="stroke:#181818;stroke-width:0.8000000000000002;" width="125.6" x="752.8" y="511.3903"/><rect fill="none" height="8" style="stroke:#181818;stroke-width:0.8000000000000002;" width="12" x="862.4" y="515.3903"/><rect fill="none" height="1.6" style="stroke:#181818;stroke-width:0.8000000000000002;" width="3.2" x="860.8" y="516.9903"/><rect fill="none" height="1.6" style="stroke:#181818;stroke-width:0.8000000000000002;" width="3.2" x="860.8" y="520.1903"/><text fill="#000000" font-family="sans-serif" font-size="11.2" font-style="italic" lengthAdjust="spacing" textLength="58.0494" x="786.5753" y="533.763">&#171;container&#187;</text><text fill="#000000" font-family="sans-serif" font-size="11.2" font-weight="bold" lengthAdjust="spacing" textLength="64.873" x="783.1635" y="549.0173">ReaderCom</text></g><!--cluster ReaderQuery--><g id="cluster_ReaderQuery"><rect fill="none" height="88.8" rx="2" ry="2" style="stroke:#181818;stroke-width:0.8000000000000002;" width="91.2" x="1052.8" y="422.5903"/><rect fill="none" height="8" style="stroke:#181818;stroke-width:0.8000000000000002;" width="12" x="1128" y="426.5903"/><rect fill="none" height="1.6" style="stroke:#181818;stroke-width:0.8000000000000002;" width="3.2" x="1126.4" y="428.1903"/><rect fill="none" height="1.6" style="stroke:#181818;stroke-width:0.8000000000000002;" width="3.2" x="1126.4" y="431.3903"/><text fill="#000000" font-family="sans-serif" font-size="11.2" font-style="italic" lengthAdjust="spacing" textLength="58.0494" x="1069.3753" y="444.963">&#171;container&#187;</text><text fill="#000000" font-family="sans-serif" font-size="11.2" font-weight="bold" lengthAdjust="spacing" textLength="73.5697" x="1061.6151" y="460.2173">ReaderQuery</text></g><!--cluster TopQuery--><g id="cluster_TopQuery"><rect fill="none" height="88.8" rx="2" ry="2" style="stroke:#181818;stroke-width:0.8000000000000002;" width="103.2" x="1196.8" y="422.5903"/><rect fill="none" height="8" style="stroke:#181818;stroke-width:0.8000000000000002;" width="12" x="1284" y="426.5903"/><rect fill="none" height="1.6" style="stroke:#181818;stroke-width:0.8000000000000002;" width="3.2" x="1282.4" y="428.1903"/><rect fill="none" height="1.6" style="stroke:#181818;stroke-width:0.8000000000000002;" width="3.2" x="1282.4" y="431.3903"/><text fill="#000000" font-family="sans-serif" font-size="11.2" font-style="italic" lengthAdjust="spacing" textLength="58.0494" x="1219.3753" y="444.963">&#171;container&#187;</text><text fill="#000000" font-family="sans-serif" font-size="11.2" font-weight="bold" lengthAdjust="spacing" textLength="55.0142" x="1220.8929" y="460.2173">TopQuery</text></g><text fill="#000000" font-family="sans-serif" font-size="11.2" lengthAdjust="spacing" textLength="24.1695" x="99.1152" y="720.963">auth</text><rect fill="#F1F1F1" height="9.6" style="stroke:#181818;stroke-width:1.2000000000000002;" width="9.6" x="106.4" y="699.3903"/><text fill="#000000" font-family="sans-serif" font-size="11.2" lengthAdjust="spacing" textLength="33.5663" x="203.2169" y="720.963">recom</text><rect fill="#F1F1F1" height="9.6" style="stroke:#181818;stroke-width:1.2000000000000002;" width="9.6" x="215.2" y="699.3903"/><text fill="#000000" font-family="sans-serif" font-size="11.2" lengthAdjust="spacing" textLength="50.747" x="302.6265" y="720.963">bookCom</text><rect fill="#F1F1F1" height="9.6" style="stroke:#181818;stroke-width:1.2000000000000002;" width="9.6" x="323.2" y="699.3903"/><text fill="#000000" font-family="sans-serif" font-size="11.2" lengthAdjust="spacing" textLength="58.7438" x="485.0281" y="720.963">bookQuery</text><rect fill="#F1F1F1" height="9.6" style="stroke:#181818;stroke-width:1.2000000000000002;" width="9.6" x="509.6" y="699.3903"/><text fill="#000000" font-family="sans-serif" font-size="11.2" lengthAdjust="spacing" textLength="64.0413" x="617.1793" y="720.963">lendingCom</text><rect fill="#F1F1F1" height="9.6" style="stroke:#181818;stroke-width:1.2000000000000002;" width="9.6" x="644.4" y="699.3903"/><text fill="#000000" font-family="sans-serif" font-size="11.2" lengthAdjust="spacing" textLength="72.0381" x="947.5809" y="720.963">lendingQuery</text><rect fill="#F1F1F1" height="9.6" style="stroke:#181818;stroke-width:1.2000000000000002;" width="9.6" x="978.8" y="699.3903"/><text fill="#000000" font-family="sans-serif" font-size="11.2" lengthAdjust="spacing" textLength="59.3822" x="847.5089" y="720.963">readerCom</text><rect fill="#F1F1F1" height="9.6" style="stroke:#181818;stroke-width:1.2000000000000002;" width="9.6" x="872.4" y="699.3903"/><text fill="#000000" font-family="sans-serif" font-size="11.2" lengthAdjust="spacing" textLength="67.3789" x="1095.9105" y="720.963">readerQuery</text><rect fill="#F1F1F1" height="9.6" style="stroke:#181818;stroke-width:1.2000000000000002;" width="9.6" x="1124.8" y="699.3903"/><text fill="#000000" font-family="sans-serif" font-size="11.2" lengthAdjust="spacing" textLength="50.0302" x="1235.7849" y="720.963">topQuery</text><rect fill="#F1F1F1" height="9.6" style="stroke:#181818;stroke-width:1.2000000000000002;" width="9.6" x="1256" y="699.3903"/><text fill="#000000" font-family="sans-serif" font-size="11.2" lengthAdjust="spacing" textLength="2.912" x="658.544" y="50.9087">&#160;</text><rect fill="#F1F1F1" height="9.6" style="stroke:#181818;stroke-width:1.2000000000000002;" width="9.6" x="655.2" y="63.7903"/><text fill="#000000" font-family="sans-serif" font-size="11.2" lengthAdjust="spacing" textLength="2.912" x="552.944" y="212.163">&#160;</text><rect fill="#F1F1F1" height="9.6" style="stroke:#181818;stroke-width:1.2000000000000002;" width="9.6" x="549.6" y="190.5903"/><text fill="#000000" font-family="sans-serif" font-size="11.2" lengthAdjust="spacing" textLength="2.912" x="82.544" y="528.163">&#160;</text><rect fill="#F1F1F1" height="9.6" style="stroke:#181818;stroke-width:1.2000000000000002;" width="9.6" x="79.2" y="506.5903"/><text fill="#000000" font-family="sans-serif" font-size="11.2" lengthAdjust="spacing" textLength="2.912" x="220.144" y="528.163">&#160;</text><rect fill="#F1F1F1" height="9.6" style="stroke:#181818;stroke-width:1.2000000000000002;" width="9.6" x="216.8" y="506.5903"/><text fill="#000000" font-family="sans-serif" font-size="11.2" lengthAdjust="spacing" textLength="2.912" x="365.744" y="493.7087">&#160;</text><rect fill="#F1F1F1" height="9.6" style="stroke:#181818;stroke-width:1.2000000000000002;" width="9.6" x="362.4" y="506.5903"/><text fill="#000000" font-family="sans-serif" font-size="11.2" lengthAdjust="spacing" textLength="2.912" x="324.944" y="651.363">&#160;</text><rect fill="#F1F1F1" height="9.6" style="stroke:#181818;stroke-width:1.2000000000000002;" width="9.6" x="321.6" y="629.7903"/><text fill="#000000" font-family="sans-serif" font-size="11.2" lengthAdjust="spacing" textLength="2.912" x="512.944" y="651.363">&#160;</text><rect fill="#F1F1F1" height="9.6" style="stroke:#181818;stroke-width:1.2000000000000002;" width="9.6" x="509.6" y="629.7903"/><text fill="#000000" font-family="sans-serif" font-size="11.2" lengthAdjust="spacing" textLength="2.912" x="648.144" y="493.7087">&#160;</text><rect fill="#F1F1F1" height="9.6" style="stroke:#181818;stroke-width:1.2000000000000002;" width="9.6" x="644.8" y="506.5903"/><text fill="#000000" font-family="sans-serif" font-size="11.2" lengthAdjust="spacing" textLength="2.912" x="648.144" y="651.363">&#160;</text><rect fill="#F1F1F1" height="9.6" style="stroke:#181818;stroke-width:1.2000000000000002;" width="9.6" x="644.8" y="629.7903"/><text fill="#000000" font-family="sans-serif" font-size="11.2" lengthAdjust="spacing" textLength="2.912" x="958.544" y="336.9087">&#160;</text><rect fill="#F1F1F1" height="9.6" style="stroke:#181818;stroke-width:1.2000000000000002;" width="9.6" x="955.2" y="349.7903"/><text fill="#000000" font-family="sans-serif" font-size="11.2" lengthAdjust="spacing" textLength="2.912" x="1004.144" y="528.163">&#160;</text><rect fill="#F1F1F1" height="9.6" style="stroke:#181818;stroke-width:1.2000000000000002;" width="9.6" x="1000.8" y="506.5903"/><text fill="#000000" font-family="sans-serif" font-size="11.2" lengthAdjust="spacing" textLength="2.912" x="765.744" y="493.7087">&#160;</text><rect fill="#F1F1F1" height="9.6" style="stroke:#181818;stroke-width:1.2000000000000002;" width="9.6" x="762.4" y="506.5903"/><text fill="#000000" font-family="sans-serif" font-size="11.2" lengthAdjust="spacing" textLength="2.912" x="862.544" y="651.363">&#160;</text><rect fill="#F1F1F1" height="9.6" style="stroke:#181818;stroke-width:1.2000000000000002;" width="9.6" x="859.2" y="629.7903"/><text fill="#000000" font-family="sans-serif" font-size="11.2" lengthAdjust="spacing" textLength="2.912" x="1128.144" y="528.163">&#160;</text><rect fill="#F1F1F1" height="9.6" style="stroke:#181818;stroke-width:1.2000000000000002;" width="9.6" x="1124.8" y="506.5903"/><text fill="#000000" font-family="sans-serif" font-size="11.2" lengthAdjust="spacing" textLength="2.912" x="1284.144" y="528.163">&#160;</text><rect fill="#F1F1F1" height="9.6" style="stroke:#181818;stroke-width:1.2000000000000002;" width="9.6" x="1280.8" y="506.5903"/><!--entity authapi--><g id="elem_authapi"><ellipse cx="111.2" cy="792.9903" fill="#F1F1F1" rx="6.4" ry="6.4" style="stroke:#181818;stroke-width:0.4000000000000001;"/><text fill="#000000" font-family="sans-serif" font-size="11.2" lengthAdjust="spacing" textLength="76.1261" x="73.1369" y="818.563">HTTP Auth API</text></g><!--entity recomapi--><g id="elem_recomapi"><ellipse cx="217.6" cy="792.9903" fill="#F1F1F1" rx="6.4" ry="6.4" style="stroke:#181818;stroke-width:0.4000000000000001;"/><text fill="#000000" font-family="sans-serif" font-size="11.2" lengthAdjust="spacing" textLength="86.9901" x="174.105" y="818.563">HTTP Recom API</text></g><!--entity bookapic--><g id="elem_bookapic"><ellipse cx="328" cy="792.9903" fill="#F1F1F1" rx="6.4" ry="6.4" style="stroke:#181818;stroke-width:0.4000000000000001;"/><text fill="#000000" font-family="sans-serif" font-size="11.2" lengthAdjust="spacing" textLength="102.222" x="276.889" y="818.563">HTTP BookCom API</text></g><!--entity bookapiq--><g id="elem_bookapiq"><ellipse cx="514.4" cy="792.9903" fill="#F1F1F1" rx="6.4" ry="6.4" style="stroke:#181818;stroke-width:0.4000000000000001;"/><text fill="#000000" font-family="sans-serif" font-size="11.2" lengthAdjust="spacing" textLength="110.2188" x="459.2906" y="818.563">HTTP BookQuery API</text></g><!--entity lendingapic--><g id="elem_lendingapic"><ellipse cx="649.6" cy="792.9903" fill="#F1F1F1" rx="6.4" ry="6.4" style="stroke:#181818;stroke-width:0.4000000000000001;"/><text fill="#000000" font-family="sans-serif" font-size="11.2" lengthAdjust="spacing" textLength="118.1035" x="590.5482" y="818.563">HTTP LendingCom API</text></g><!--entity lendingapiq--><g id="elem_lendingapiq"><ellipse cx="984.8" cy="792.9903" fill="#F1F1F1" rx="6.4" ry="6.4" style="stroke:#181818;stroke-width:0.4000000000000001;"/><text fill="#000000" font-family="sans-serif" font-size="11.2" lengthAdjust="spacing" textLength="126.1003" x="921.7498" y="818.563">HTTP LendingQuery API</text></g><!--entity readerapic--><g id="elem_readerapic"><ellipse cx="849.6" cy="792.9903" fill="#F1F1F1" rx="6.4" ry="6.4" style="stroke:#181818;stroke-width:0.4000000000000001;"/><text fill="#000000" font-family="sans-serif" font-size="11.2" lengthAdjust="spacing" textLength="112.806" x="793.197" y="818.563">HTTP ReaderCom API</text></g><!--entity readerapiq--><g id="elem_readerapiq"><ellipse cx="1129.6" cy="792.9903" fill="#F1F1F1" rx="6.4" ry="6.4" style="stroke:#181818;stroke-width:0.4000000000000001;"/><text fill="#000000" font-family="sans-serif" font-size="11.2" lengthAdjust="spacing" textLength="120.8027" x="1069.1986" y="818.563">HTTP ReaderQuery API</text></g><!--entity topapiq--><g id="elem_topapiq"><ellipse cx="1260.8" cy="792.9903" fill="#F1F1F1" rx="6.4" ry="6.4" style="stroke:#181818;stroke-width:0.4000000000000001;"/><text fill="#000000" font-family="sans-serif" font-size="11.2" lengthAdjust="spacing" textLength="103.2972" x="1209.1514" y="818.563">HTTP TopQuery API</text></g><!--link Auth to Auth--><!--link Recom to Recom--><!--link BookCom to BookCom--><!--link BookQuery to BookCom--><!--link LendingCom to BookCom--><!--link TopQuery to LendingCom--><!--link LendingCom to LendingCom--><!--link LendingQuery to LendingCom--><!--link ReaderCom to ReaderCom--><!--link ReaderQuery to ReaderCom--><!--link LendingCom to ReaderCom--><!--link innerportoutmb to innerportoutauth--><g id="link_innerportoutmb_innerportoutauth"><path d="M549.224,196.0623 C515.104,195.5263 321.024,197.1263 227.2,299.3903 C188.584,341.4783 197.216,364.1823 173.6,416.1903 C159.256,447.7823 166.608,463.3503 141.6,487.3903 C126.208,502.1823 100.168,507.9743 89.16,509.8383 " fill="none" id="innerportoutmb-innerportoutauth" style="stroke:#181818;stroke-width:0.8000000000000002;"/><text fill="#000000" font-family="sans-serif" font-size="10.4" lengthAdjust="spacing" textLength="55.0577" x="233.6" y="316.9079">Publish API</text><path d="M219.2074,299.7343 A8,8 0 0 0 227.544 307.3829" fill="none" style="stroke:#181818;stroke-width:1.2000000000000002;"/><ellipse cx="227.2" cy="299.3903" fill="#FFFFFF" rx="4.8" ry="4.8" style="stroke:#181818;stroke-width:1.2000000000000002;"/></g><!--link innerportinmb to innerportoutauth--><g id="link_innerportinmb_innerportoutauth"><path d="M654.848,69.1983 C619.88,68.0623 414.424,64.4063 265.6,127.3903 C113.36,191.8223 66.2,254.6223 31.2,416.1903 C24.504,447.1183 13.904,460.8943 31.2,487.3903 C42.144,504.1583 68.216,508.8863 79.096,510.1503 " fill="none" id="innerportinmb-innerportoutauth" style="stroke:#181818;stroke-width:0.8000000000000002;"/><text fill="#000000" font-family="sans-serif" font-size="10.4" lengthAdjust="spacing" textLength="48.6824" x="100.8" y="266.5079">Notify API</text><path d="M273.0143,130.395 A8,8 0 0 0 268.6048 119.976" fill="none" style="stroke:#181818;stroke-width:1.2000000000000002;"/><ellipse cx="265.6" cy="127.3903" fill="#FFFFFF" rx="4.8" ry="4.8" style="stroke:#181818;stroke-width:1.2000000000000002;"/></g><!--link innerportoutmb to innerportoutrecom--><g id="link_innerportoutmb_innerportoutrecom"><path d="M549.28,196.5343 C523.488,198.3343 407.912,207.2383 376.8,224.1903 C337.44,245.6383 328.376,258.6943 309.6,299.3903 C274.272,375.9583 336.704,421.5583 284,487.3903 C269.264,505.7983 238.392,509.5983 226.456,510.3823 " fill="none" id="innerportoutmb-innerportoutrecom" style="stroke:#181818;stroke-width:0.8000000000000002;"/><text fill="#000000" font-family="sans-serif" font-size="10.4" lengthAdjust="spacing" textLength="55.0577" x="316" y="316.9079">Publish API</text><path d="M302.0936,302.1569 A8,8 0 0 0 312.3667 306.8966" fill="none" style="stroke:#181818;stroke-width:1.2000000000000002;"/><ellipse cx="309.6" cy="299.3903" fill="#FFFFFF" rx="4.8" ry="4.8" style="stroke:#181818;stroke-width:1.2000000000000002;"/></g><!--link innerportinmb to innerportoutrecom--><g id="link_innerportinmb_innerportoutrecom"><path d="M654.912,69.4543 C612.24,70.3183 312.488,82.2783 187.2,248.9903 C155.32,291.4143 145.4,442.4383 173.6,487.3903 C183.24,502.7583 206.256,508.1903 216.512,509.8943 " fill="none" id="innerportinmb-innerportoutrecom" style="stroke:#181818;stroke-width:0.8000000000000002;"/><text fill="#000000" font-family="sans-serif" font-size="10.4" lengthAdjust="spacing" textLength="48.6824" x="193.6" y="266.5079">Notify API</text><path d="M458.8951,101.1483 A8,8 0 0 0 456.1561 90.1712" fill="none" style="stroke:#181818;stroke-width:1.2000000000000002;"/><ellipse cx="452.037" cy="97.0293" fill="#FFFFFF" rx="4.8" ry="4.8" style="stroke:#181818;stroke-width:1.2000000000000002;"/></g><!--link innerportoutmb to innerportoutbookc--><g id="link_innerportoutmb_innerportoutbookc"><path d="M549.224,196.5823 C533.736,197.9583 486.904,203.6863 455.2,224.1903 C421.744,245.8223 424.648,263.9743 406.4,299.3903 C350.872,407.1583 318.184,428.8383 292.8,547.3903 C286.176,578.3343 275.48,592.1103 292.8,618.5903 C299.6,628.9823 307.152,624.5263 318.4,629.7903 C319.416,630.2623 320.488,630.7903 321.512,631.2943 " fill="none" id="innerportoutmb-innerportoutbookc" style="stroke:#181818;stroke-width:0.8000000000000002;"/><text fill="#000000" font-family="sans-serif" font-size="10.4" lengthAdjust="spacing" textLength="55.0577" x="365.6" y="400.9079">Publish API</text><path d="M330.6263,421.6214 A8,8 0 0 0 340.5711 427.0159" fill="none" style="stroke:#181818;stroke-width:1.2000000000000002;"/><ellipse cx="338.296" cy="419.3463" fill="#FFFFFF" rx="4.8" ry="4.8" style="stroke:#181818;stroke-width:1.2000000000000002;"/></g><!--link innerportinmb to innerportoutbookc--><g id="link_innerportinmb_innerportoutbookc"><path d="M661.872,73.6783 C668.016,87.9103 687.2,133.6223 687.2,149.3903 C687.2,149.3903 687.2,149.3903 687.2,262.9903 C687.2,416.0783 465.208,381.0463 348,493.7903 C328,513.0223 323.376,520.6463 316,547.3903 C307.584,577.8943 306.648,588.3583 316,618.5903 C317.288,622.7423 320.144,626.7743 322.536,629.6383 " fill="none" id="innerportinmb-innerportoutbookc" style="stroke:#181818;stroke-width:0.8000000000000002;"/><text fill="#000000" font-family="sans-serif" font-size="10.4" lengthAdjust="spacing" textLength="48.6824" x="687.2" y="316.9079">Notify API</text><path d="M568.7574,396.9972 A8,8 0 0 0 565.031 386.3148" fill="none" style="stroke:#181818;stroke-width:1.2000000000000002;"/><ellipse cx="561.553" cy="393.5193" fill="#FFFFFF" rx="4.8" ry="4.8" style="stroke:#181818;stroke-width:1.2000000000000002;"/></g><!--link innerportinmb to innerportoutbookq--><g id="link_innerportinmb_innerportoutbookq"><path d="M661.344,73.7023 C662.6,77.1343 664.768,81.8543 668,84.9903 C716.032,131.5263 804,82.5103 804,149.3903 C804,149.3903 804,149.3903 804,262.9903 C804,298.5583 777.576,298.8143 754.4,325.7903 C721.12,364.5263 712.464,374.0303 676,409.7903 C636.088,448.9263 609.768,445.0543 582.4,493.7903 C554.776,542.9823 596.136,575.9423 559.2,618.5903 C548.88,630.5103 528.84,633.1023 519.464,633.6543 " fill="none" id="innerportinmb-innerportoutbookq" style="stroke:#181818;stroke-width:0.8000000000000002;"/><text fill="#000000" font-family="sans-serif" font-size="10.4" lengthAdjust="spacing" textLength="48.6824" x="791.2" y="316.9079">Notify API</text><path d="M632.3423,449.751 A8,8 0 0 0 626.0567 440.344" fill="none" style="stroke:#181818;stroke-width:1.2000000000000002;"/><ellipse cx="624.496" cy="448.1903" fill="#FFFFFF" rx="4.8" ry="4.8" style="stroke:#181818;stroke-width:1.2000000000000002;"/></g><!--link innerportoutmb to innerportinlendingc--><g id="link_innerportoutmb_innerportinlendingc"><path d="M549.224,196.6303 C527,198.8463 440.8,210.6783 440.8,261.3903 C440.8,261.3903 440.8,261.3903 440.8,397.3903 C440.8,493.0543 612.288,508.2943 644.44,510.3183 " fill="none" id="innerportoutmb-innerportinlendingc" style="stroke:#181818;stroke-width:0.8000000000000002;"/><text fill="#000000" font-family="sans-serif" font-size="10.4" lengthAdjust="spacing" textLength="55.0577" x="447.2" y="316.9079">Publish API</text><path d="M534.0871,496.1512 A8,8 0 0 0 537.745 485.4452" fill="none" style="stroke:#181818;stroke-width:1.2000000000000002;"/><ellipse cx="530.563" cy="488.9693" fill="#FFFFFF" rx="4.8" ry="4.8" style="stroke:#181818;stroke-width:1.2000000000000002;"/></g><!--link innerportinmb to innerportinlendingc--><g id="link_innerportinmb_innerportinlendingc"><path d="M661.04,73.6703 C662.144,77.2703 664.264,82.2623 668,84.9903 C752.16,146.5503 893.6,45.1183 893.6,149.3903 C893.6,149.3903 893.6,149.3903 891.2,262.9903 C891.2,403.5263 689.344,494.0143 654.648,508.5343 " fill="none" id="innerportinmb-innerportinlendingc" style="stroke:#181818;stroke-width:0.8000000000000002;"/><text fill="#000000" font-family="sans-serif" font-size="10.4" lengthAdjust="spacing" textLength="48.6824" x="900" y="266.5079">Notify API</text><path d="M793.866,434.0667 A8,8 0 0 0 786.9834 425.0873" fill="none" style="stroke:#181818;stroke-width:1.2000000000000002;"/><ellipse cx="785.935" cy="433.0183" fill="#FFFFFF" rx="4.8" ry="4.8" style="stroke:#181818;stroke-width:1.2000000000000002;"/></g><!--link innerportinmb to innerportoutlendingq--><g id="link_innerportinmb_innerportoutlendingq"><path d="M661,73.7263 C662.088,77.3583 664.192,82.3663 668,84.9903 C748.416,140.3823 802.456,59.1023 886.4,108.9903 C950.336,146.9903 1005.68,343.0543 1019.2,416.1903 C1024.952,447.3103 1027.488,456.8543 1019.2,487.3903 C1017.24,494.5983 1012.416,501.8623 1009.08,506.2943 " fill="none" id="innerportinmb-innerportoutlendingq" style="stroke:#181818;stroke-width:0.8000000000000002;"/><text fill="#000000" font-family="sans-serif" font-size="10.4" lengthAdjust="spacing" textLength="48.6824" x="986.4" y="266.5079">Notify API</text><path d="M975.0238,242.1347 A8,8 0 0 0 964.4264 246.0965" fill="none" style="stroke:#181818;stroke-width:1.2000000000000002;"/><ellipse cx="971.706" cy="249.4143" fill="#FFFFFF" rx="4.8" ry="4.8" style="stroke:#181818;stroke-width:1.2000000000000002;"/></g><!--link innerportoutmb to innerportinreaderc--><g id="link_innerportoutmb_innerportinreaderc"><path d="M554.616,200.5183 C555.608,217.5583 560.904,281.2703 585.6,325.7903 C634.696,414.2943 737.768,489.9823 762.016,507.0143 " fill="none" id="innerportoutmb-innerportinreaderc" style="stroke:#181818;stroke-width:0.8000000000000002;"/><text fill="#000000" font-family="sans-serif" font-size="10.4" lengthAdjust="spacing" textLength="55.0577" x="592" y="316.9079">Publish API</text><path d="M583.3973,333.481 A8,8 0 0 0 593.2908 327.993" fill="none" style="stroke:#181818;stroke-width:1.2000000000000002;"/><ellipse cx="585.6" cy="325.7903" fill="#FFFFFF" rx="4.8" ry="4.8" style="stroke:#181818;stroke-width:1.2000000000000002;"/></g><!--link innerportinmb to innerportoutreaderc--><g id="link_innerportinmb_innerportoutreaderc"><path d="M661,73.7263 C662.08,77.3663 664.184,82.3743 668,84.9903 C709.568,113.5183 845.28,94.6063 893.6,108.9903 C982.128,135.3343 1012.568,163.3583 1047.2,248.9903 C1050.672,257.5743 1062.8,477.1903 1032,528.9903 C1021.944,545.9023 895.448,616.4143 868.88,631.1023 " fill="none" id="innerportinmb-innerportoutreaderc" style="stroke:#181818;stroke-width:0.8000000000000002;"/><text fill="#000000" font-family="sans-serif" font-size="10.4" lengthAdjust="spacing" textLength="48.6824" x="1057.6" y="316.9079">Notify API</text><path d="M772.6914,96.5583 A8,8 0 0 0 772.5321 107.8709" fill="none" style="stroke:#181818;stroke-width:1.2000000000000002;"/><ellipse cx="778.268" cy="102.2943" fill="#FFFFFF" rx="4.8" ry="4.8" style="stroke:#181818;stroke-width:1.2000000000000002;"/></g><!--link innerportinmb to innerportoutreaderq--><g id="link_innerportinmb_innerportoutreaderq"><path d="M660.968,73.7663 C662.032,77.4303 664.128,82.4543 668,84.9903 C740.896,132.6543 989.408,56.8943 1059.2,108.9903 C1175.656,195.9183 1145.928,273.0783 1171.2,416.1903 C1176.704,447.3503 1187.224,460.1023 1171.2,487.3903 C1163.16,501.0783 1143.776,507.2863 1134.592,509.5343 " fill="none" id="innerportinmb-innerportoutreaderq" style="stroke:#181818;stroke-width:0.8000000000000002;"/><text fill="#000000" font-family="sans-serif" font-size="10.4" lengthAdjust="spacing" textLength="48.6824" x="1160.8" y="266.5079">Notify API</text><path d="M858.6694,90.146 A8,8 0 0 0 859.5818 101.4229" fill="none" style="stroke:#181818;stroke-width:1.2000000000000002;"/><ellipse cx="864.764" cy="95.3283" fill="#FFFFFF" rx="4.8" ry="4.8" style="stroke:#181818;stroke-width:1.2000000000000002;"/></g><!--link innerportinmb to innerportouttopq--><g id="link_innerportinmb_innerportouttopq"><path d="M660.968,73.7663 C662.032,77.4383 664.128,82.4623 668,84.9903 C742.256,133.4863 980.136,88.3583 1066.4,108.9903 C1086.376,113.7663 1092.08,115.4623 1108.8,127.3903 C1168.416,169.9263 1180.328,187.4303 1220,248.9903 C1262.112,314.3263 1238.032,350.9263 1288.8,409.7903 C1292.344,413.9023 1296.552,411.4543 1299.2,416.1903 C1314.64,443.8143 1310.328,457.7663 1299.2,487.3903 C1297.872,490.9263 1295.68,490.6303 1293.6,493.7903 C1290.976,497.7823 1288.712,502.7743 1287.264,506.2783 " fill="none" id="innerportinmb-innerportouttopq" style="stroke:#181818;stroke-width:0.8000000000000002;"/><text fill="#000000" font-family="sans-serif" font-size="10.4" lengthAdjust="spacing" textLength="48.6824" x="1240.8" y="266.5079">Notify API</text><path d="M1062.2142,102.1727 A8,8 0 0 0 1059.5825 113.1761" fill="none" style="stroke:#181818;stroke-width:1.2000000000000002;"/><ellipse cx="1066.4" cy="108.9903" fill="#FFFFFF" rx="4.8" ry="4.8" style="stroke:#181818;stroke-width:1.2000000000000002;"/></g><!--link innerportoutauth to portauth--><g id="link_innerportoutauth_portauth"><path d="M84.616,516.5423 C88.272,542.2223 106.976,673.6943 110.592,699.1263 " fill="none" id="innerportoutauth-portauth" style="stroke:#181818;stroke-width:0.8000000000000002;"/></g><!--link innerportoutrecom to portrecom--><g id="link_innerportoutrecom_portrecom"><path d="M221.56,516.5423 C221.344,542.3343 220.24,674.8383 220.032,699.4543 " fill="none" id="innerportoutrecom-portrecom" style="stroke:#181818;stroke-width:0.8000000000000002;"/></g><!--link innerportoutbookc to portbookc--><g id="link_innerportoutbookc_portbookc"><path d="M326.496,639.4383 C326.784,651.5663 327.624,687.4623 327.904,699.4463 " fill="none" id="innerportoutbookc-portbookc" style="stroke:#181818;stroke-width:0.8000000000000002;"/></g><!--link innerportoutbookq to portbookq--><g id="link_innerportoutbookq_portbookq"><path d="M514.4,639.4383 C514.4,651.5663 514.4,687.4623 514.4,699.4463 " fill="none" id="innerportoutbookq-portbookq" style="stroke:#181818;stroke-width:0.8000000000000002;"/></g><!--link innerportoutlendingc to portlendingc--><g id="link_innerportoutlendingc_portlendingc"><path d="M649.6,639.4383 C649.6,651.5663 649.6,687.4623 649.6,699.4463 " fill="none" id="innerportoutlendingc-portlendingc" style="stroke:#181818;stroke-width:0.8000000000000002;"/></g><!--link innerportoutlendingq to portlendingq--><g id="link_innerportoutlendingq_portlendingq"><path d="M1005.112,516.5423 C1002.192,542.3343 987.224,674.8383 984.448,699.4543 " fill="none" id="innerportoutlendingq-portlendingq" style="stroke:#181818;stroke-width:0.8000000000000002;"/></g><!--link innerportoutreaderc to portreaderc--><g id="link_innerportoutreaderc_portreaderc"><path d="M864.808,639.4383 C867.232,651.5663 874.416,687.4623 876.808,699.4463 " fill="none" id="innerportoutreaderc-portreaderc" style="stroke:#181818;stroke-width:0.8000000000000002;"/></g><!--link innerportoutreaderq to portreaderq--><g id="link_innerportoutreaderq_portreaderq"><path d="M1129.6,516.5423 C1129.6,542.3343 1129.6,674.8383 1129.6,699.4543 " fill="none" id="innerportoutreaderq-portreaderq" style="stroke:#181818;stroke-width:0.8000000000000002;"/></g><!--link innerportouttopq to porttopq--><g id="link_innerportouttopq_porttopq"><path d="M1285.032,516.5423 C1281.688,542.3343 1264.504,674.8383 1261.312,699.4543 " fill="none" id="innerportouttopq-porttopq" style="stroke:#181818;stroke-width:0.8000000000000002;"/></g><!--link portauth to authapi--><g id="link_portauth_authapi"><path d="M111.2,709.1983 C111.2,723.3503 111.2,769.2943 111.2,786.0223 " fill="none" id="portauth-authapi" style="stroke:#181818;stroke-width:0.8000000000000002;"/></g><!--link portrecom to recomapi--><g id="link_portrecom_recomapi"><path d="M219.888,708.9663 C219.512,722.8223 218.232,769.1023 217.768,785.9743 " fill="none" id="portrecom-recomapi" style="stroke:#181818;stroke-width:0.8000000000000002;"/></g><!--link portbookc to bookapic--><g id="link_portbookc_bookapic"><path d="M328,708.9663 C328,722.8223 328,769.1023 328,785.9743 " fill="none" id="portbookc-bookapic" style="stroke:#181818;stroke-width:0.8000000000000002;"/></g><!--link portbookq to bookapiq--><g id="link_portbookq_bookapiq"><path d="M514.4,708.9663 C514.4,722.8223 514.4,769.1023 514.4,785.9743 " fill="none" id="portbookq-bookapiq" style="stroke:#181818;stroke-width:0.8000000000000002;"/></g><!--link portlendingc to lendingapic--><g id="link_portlendingc_lendingapic"><path d="M649.6,708.9663 C649.6,722.8223 649.6,769.1023 649.6,785.9743 " fill="none" id="portlendingc-lendingapic" style="stroke:#181818;stroke-width:0.8000000000000002;"/></g><!--link portlendingq to lendingapiq--><g id="link_portlendingq_lendingapiq"><path d="M984.04,708.9663 C984.16,722.8223 984.592,769.1023 984.744,785.9743 " fill="none" id="portlendingq-lendingapiq" style="stroke:#181818;stroke-width:0.8000000000000002;"/></g><!--link portreaderc to readerapic--><g id="link_portreaderc_readerapic"><path d="M876.328,708.9663 C871.872,722.8223 857.016,769.1023 851.6,785.9743 " fill="none" id="portreaderc-readerapic" style="stroke:#181818;stroke-width:0.8000000000000002;"/></g><!--link portreaderq to readerapiq--><g id="link_portreaderq_readerapiq"><path d="M1129.6,708.9663 C1129.6,722.8223 1129.6,769.1023 1129.6,785.9743 " fill="none" id="portreaderq-readerapiq" style="stroke:#181818;stroke-width:0.8000000000000002;"/></g><!--link porttopq to topapiq--><g id="link_porttopq_topapiq"><path d="M1260.8,708.9663 C1260.8,722.8223 1260.8,769.1023 1260.8,785.9743 " fill="none" id="porttopq-topapiq" style="stroke:#181818;stroke-width:0.8000000000000002;"/></g><!--SRC=[dLLBRjim4Dtp58GsIHQgWow3843IJGCuWUiQtHHTq39h4v7reUW2Hj4ZTTKZv6BbNqDHaYtRC63nlVdgSUPg9qJLtCrcLKuASTZd7x9oFvE_gYne8T8D8rjEzWW99dAAlx5643n__xTb6S6lxtz_qHn_HCWRu6J-yZN1z_VDiH5q__20IOFb4VwDC22zqAOXMugVUFb6kU9dPI48AoYN9f9RbLom0YVoAnsmGWBcQBysO7aG4IhF5Fm71R4U3s8t46702P4MoWtqigJoOPeRhaoYT9xAyktJeAlUcjVI91iDPHazeRuSA3zEorivgoDdSrfiMB6Tc7fkhCQpRqdzCSTg68jQdnCrhdH9oORoYOLoRPIT48Jbz0Qyu4qPXt45gxAwm9ieA-jANHcSVj-npOOMF_9K7o2CzIK8WANHk1Lr0DcpOL2ds0-tOaFWVq1nDGuIpl01zOMmV- -T2ktfE67K1qX5TZUSLpYzlKcZyOFlSB8uh7FMxF3ZuZb1uGp4wVLjgZwzXg-bO3-Fnaw-jLFnz9oA0vuJqPk68Kz5rEFgeXAz9Gnuhc4zRDYNQ3kzfgSQsavDrescgVdQ0NDHPu7jr7Jj6Bh4LCsSM3zkI6b1oocbdirIzf1HdiNifdNOsauKYtRMvzgD7eY3LP6tiy8IuYMMWy7HOG5Ft0y3dsTdIV1sTeGSu4NOGUS8UaoZ-EBBpe8-nRVKuhPNyQMokErMV7S0NgFU_UqeRRzwHHsoEhwS37ssjcDzUWiu7JzQM9PWEYONs_KDJZwlLWkpu9JOL5DLnqZ5MjIiEGVhXWMusrYEeLeY2Ld8C2-jmwbR3jX9ZcHR4lg2Iwg7MSEydTxQtDL9w0_igvW7lBa5wqcoZPeXFqvegiEkVLvSwj0tpKjAdVf6UI61qnf1xIW0jWCg9iHg18HYOlkYWJm2nDWuZTZ2_WC0]--></g></svg>