<svg xmlns="http://www.w3.org/2000/svg" xmlns:xlink="http://www.w3.org/1999/xlink" contentStyleType="text/css" height="672px" preserveAspectRatio="none" style="width:432px;height:672px;background:#FFFFFF;" version="1.1" viewBox="0 0 432 672" width="432px" zoomAndPan="magnify"><title>Vista l&#243;gica n&#237;vel 3</title><defs/><g><text fill="#000000" font-family="sans-serif" font-size="14" font-weight="bold" lengthAdjust="spacing" textLength="127.753" x="145.1524" y="24.9659">Vista l&#243;gica n&#237;vel 3</text><!--cluster ReaderC--><g id="cluster_ReaderC"><rect fill="none" height="380.14" rx="2.5" ry="2.5" style="stroke:#181818;stroke-width:1.0;" width="399" x="7" y="153.0679"/><rect fill="none" height="10" style="stroke:#181818;stroke-width:1.0;" width="15" x="386" y="158.0679"/><rect fill="none" height="2" style="stroke:#181818;stroke-width:1.0;" width="4" x="384" y="160.0679"/><rect fill="none" height="2" style="stroke:#181818;stroke-width:1.0;" width="4" x="384" y="164.0679"/><text fill="#000000" font-family="sans-serif" font-size="14" font-style="italic" lengthAdjust="spacing" textLength="72.5617" x="170.2191" y="181.0339">&#171;container&#187;</text><text fill="#000000" font-family="sans-serif" font-size="14" font-weight="bold" lengthAdjust="spacing" textLength="81.0912" x="165.9544" y="200.1018">ReaderCom</text></g><!--cluster ServiceReaderCom--><g id="cluster_ServiceReaderCom"><rect fill="none" height="204.07" rx="2.5" ry="2.5" style="stroke:#181818;stroke-width:1.0;" width="140" x="245" y="254.1379"/><rect fill="none" height="10" style="stroke:#181818;stroke-width:1.0;" width="15" x="365" y="259.1379"/><rect fill="none" height="2" style="stroke:#181818;stroke-width:1.0;" width="4" x="363" y="261.1379"/><rect fill="none" height="2" style="stroke:#181818;stroke-width:1.0;" width="4" x="363" y="265.1379"/><text fill="#000000" font-family="sans-serif" font-size="14" font-style="italic" lengthAdjust="spacing" textLength="83.6637" x="273.1681" y="282.1039">&#171;component&#187;</text><text fill="#000000" font-family="sans-serif" font-size="14" font-weight="bold" lengthAdjust="spacing" textLength="130.8575" x="249.5712" y="301.1718">ServiceReaderCom</text></g><text fill="#000000" font-family="sans-serif" font-size="14" lengthAdjust="spacing" textLength="3.64" x="264.18" y="554.1739">&#160;</text><rect fill="#F1F1F1" height="12" style="stroke:#181818;stroke-width:1.5;" width="12" x="260" y="527.2079"/><text fill="#000000" font-family="sans-serif" font-size="14" lengthAdjust="spacing" textLength="3.64" x="362.18" y="554.1739">&#160;</text><rect fill="#F1F1F1" height="12" style="stroke:#181818;stroke-width:1.5;" width="12" x="358" y="527.2079"/><text fill="#000000" font-family="sans-serif" font-size="14" lengthAdjust="spacing" textLength="3.64" x="386.18" y="130.9659">&#160;</text><rect fill="#F1F1F1" height="12" style="stroke:#181818;stroke-width:1.5;" width="12" x="382" y="147.0679"/><!--entity ReaderCom Database--><g id="elem_ReaderCom Database"><rect fill="#F1F1F1" height="68.1358" rx="2.5" ry="2.5" style="stroke:#181818;stroke-width:0.5;" width="182.8415" x="22.58" y="220.0679"/><rect fill="#F1F1F1" height="10" style="stroke:#181818;stroke-width:0.5;" width="15" x="185.4215" y="225.0679"/><rect fill="#F1F1F1" height="2" style="stroke:#181818;stroke-width:0.5;" width="4" x="183.4215" y="227.0679"/><rect fill="#F1F1F1" height="2" style="stroke:#181818;stroke-width:0.5;" width="4" x="183.4215" y="231.0679"/><text fill="#000000" font-family="sans-serif" font-size="14" font-style="italic" lengthAdjust="spacing" textLength="83.6637" x="67.1689" y="255.0339">&#171;component&#187;</text><text fill="#000000" font-family="sans-serif" font-size="14" lengthAdjust="spacing" textLength="142.8415" x="37.58" y="274.1018">ReaderCom Database</text></g><text fill="#000000" font-family="sans-serif" font-size="14" lengthAdjust="spacing" textLength="3.64" x="362.18" y="232.0359">&#160;</text><rect fill="#F1F1F1" height="12" style="stroke:#181818;stroke-width:1.5;" width="12" x="358" y="248.1379"/><text fill="#000000" font-family="sans-serif" font-size="14" lengthAdjust="spacing" textLength="3.64" x="264.18" y="479.1739">&#160;</text><rect fill="#F1F1F1" height="12" style="stroke:#181818;stroke-width:1.5;" width="12" x="260" y="452.2079"/><text fill="#000000" font-family="sans-serif" font-size="14" lengthAdjust="spacing" textLength="3.64" x="346.18" y="479.1739">&#160;</text><rect fill="#F1F1F1" height="12" style="stroke:#181818;stroke-width:1.5;" width="12" x="342" y="452.2079"/><!--entity Publish API--><g id="elem_Publish API"><ellipse cx="388" cy="54.0679" fill="#F1F1F1" rx="8" ry="8" style="stroke:#181818;stroke-width:0.5;"/><text fill="#000000" font-family="sans-serif" font-size="14" lengthAdjust="spacing" textLength="74.1157" x="350.9421" y="86.0339">Publish API</text></g><!--entity HTTP ReaderCom API--><g id="elem_HTTP ReaderCom API"><ellipse cx="261" cy="632.2079" fill="#F1F1F1" rx="8" ry="8" style="stroke:#181818;stroke-width:0.5;"/><text fill="#000000" font-family="sans-serif" font-size="14" lengthAdjust="spacing" textLength="141.0075" x="190.4963" y="664.1739">HTTP ReaderCom API</text></g><!--entity Notify API--><g id="elem_Notify API"><ellipse cx="384" cy="632.2079" fill="#F1F1F1" rx="8" ry="8" style="stroke:#181818;stroke-width:0.5;"/><text fill="#000000" font-family="sans-serif" font-size="14" lengthAdjust="spacing" textLength="65.5338" x="351.2331" y="664.1739">Notify API</text></g><!--link portoutReaderBE1 to portoutReaderC1--><g id="link_portoutReaderBE1_portoutReaderC1"><path d="M266,464.4579 C266,477.9279 266,513.5879 266,527.0079 " fill="none" id="portoutReaderBE1-portoutReaderC1" style="stroke:#181818;stroke-width:1.0;"/></g><!--link portoutReaderBE2 to portoutReaderC2--><g id="link_portoutReaderBE2_portoutReaderC2"><path d="M349.15,464.4579 C352.1,477.9279 359.92,513.5879 362.86,527.0079 " fill="none" id="portoutReaderBE2-portoutReaderC2" style="stroke:#181818;stroke-width:1.0;"/></g><!--link portinReaderC to portinReaderCBE--><g id="link_portinReaderC_portinReaderCBE"><path d="M386.71,159.3979 C382.54,176.5979 369.47,230.5479 365.3,247.7879 " fill="none" id="portinReaderC-portinReaderCBE" style="stroke:#181818;stroke-width:1.0;"/></g><!--link ReaderCom Database to ServiceReaderCom--><g id="link_ReaderCom Database_ServiceReaderCom"><path d="M127.47,288.6379 C137.31,309.2779 152.52,334.8279 173,351.2079 C193.67,367.7379 220.18,378.8979 244.86,386.3579 " fill="none" id="ReaderCom Database-ServiceReaderCom" style="stroke:#181818;stroke-width:1.0;"/><text fill="#000000" font-family="sans-serif" font-size="13" lengthAdjust="spacing" textLength="24.102" x="181" y="340.1049">SQL</text><path d="M174.1055,361.1466 A10,10 0 0 0 182.9387 350.1024" fill="none" style="stroke:#181818;stroke-width:1.5;"/><ellipse cx="173" cy="351.2079" fill="#FFFFFF" rx="6" ry="6" style="stroke:#181818;stroke-width:1.5;"/></g><!--reverse link Publish API to portinReaderC--><g id="link_Publish API_portinReaderC"><path d="M388,73.0079 C388,92.1979 388,130.6779 388,146.7879 " fill="none" id="Publish API-backto-portinReaderC" style="stroke:#181818;stroke-width:1.0;"/><path d="M379.5428,66.0861 A9,9 0 0 0 396.4572 66.0861" fill="none" style="stroke:#181818;stroke-width:1.5;"/></g><!--link portoutReaderC1 to HTTP ReaderCom API--><g id="link_portoutReaderC1_HTTP ReaderCom API"><path d="M265.72,539.6979 C264.87,556.0479 262.38,604.4479 261.4,623.4379 " fill="none" id="portoutReaderC1-HTTP ReaderCom API" style="stroke:#181818;stroke-width:1.0;"/></g><!--link portoutReaderC2 to Notify API--><g id="link_portoutReaderC2_Notify API"><path d="M365.13,539.6979 C368.5,556.0479 378.48,604.4479 382.4,623.4379 " fill="none" id="portoutReaderC2-Notify API" style="stroke:#181818;stroke-width:1.0;"/></g><!--SRC=[ZP31JW8n48RlynIJNWo72kYDa4r0IIGn1eLuBqk5YTrsqywIgF6HFFa8l9W5DikwgDWzTV-lCzyCdgsOyz1hjtEZB1UPEKzTrawD2a4kI2szoW1mHGkDAVdKQC3mJ3PNCS0TDc3sD2zOZrDdf_IgiGF0n4RZ8mLMQ3QVIqeLsit7MXky18WjScUrPHGFMYsqltAPm7u_5c15LliaGHMmpDu0uycTPrV45_6BMNajaUvfvA92oDO9iYK0Ew2cDjL-JQbk69PnakorJXGTZhvHlzaDHzr_SlintezaAqkyLgpcAkY6BjHNL7L5AVzQPTNrcAlli_o5ycXuYAO_kibEIs9pmzYBMx-_5I0cnTnGME5WCXROaet2q53UsecRsMo2XrBRbmrkDuMuSqnFB_iSlW00]--></g></svg>