<svg xmlns="http://www.w3.org/2000/svg" xmlns:xlink="http://www.w3.org/1999/xlink" contentStyleType="text/css" height="358px" preserveAspectRatio="none" style="width:649px;height:358px;background:#FFFFFF;" version="1.1" viewBox="0 0 649 358" width="649px" zoomAndPan="magnify"><defs/><g><rect fill="#FFFFFF" height="229.2361" style="stroke:#181818;stroke-width:1.0;" width="10" x="259.014" y="72.7739"/><rect fill="#FFFFFF" height="31.706" style="stroke:#181818;stroke-width:1.0;" width="10" x="415.9991" y="193.892"/><rect fill="#FFFFFF" height="76.412" style="stroke:#181818;stroke-width:1.0;" width="10" x="563.0392" y="225.598"/><line style="stroke:#181818;stroke-width:0.5;stroke-dasharray:5.0,5.0;" x1="49" x2="49" y1="39.0679" y2="320.01"/><line style="stroke:#181818;stroke-width:0.5;stroke-dasharray:5.0,5.0;" x1="263.1302" x2="263.1302" y1="39.0679" y2="320.01"/><line style="stroke:#181818;stroke-width:0.5;stroke-dasharray:5.0,5.0;" x1="420.7433" x2="420.7433" y1="39.0679" y2="320.01"/><line style="stroke:#181818;stroke-width:0.5;stroke-dasharray:5.0,5.0;" x1="567.1554" x2="567.1554" y1="39.0679" y2="320.01"/><rect fill="#E2E2F0" height="33.0679" rx="2.5" ry="2.5" style="stroke:#181818;stroke-width:0.5;" width="89.7257" x="5" y="5"/><text fill="#000000" font-family="sans-serif" font-size="14" lengthAdjust="spacing" textLength="75.7257" x="12" y="26.9659">HTTP Client</text><rect fill="#E2E2F0" height="33.0679" rx="2.5" ry="2.5" style="stroke:#181818;stroke-width:0.5;" width="89.7257" x="5" y="319.01"/><text fill="#000000" font-family="sans-serif" font-size="14" lengthAdjust="spacing" textLength="75.7257" x="12" y="340.976">HTTP Client</text><rect fill="#E2E2F0" height="33.0679" rx="2.5" ry="2.5" style="stroke:#181818;stroke-width:0.5;" width="103.7677" x="212.1302" y="5"/><text fill="#000000" font-family="sans-serif" font-size="14" lengthAdjust="spacing" textLength="89.7677" x="219.1302" y="26.9659">auth[0] : Auth</text><rect fill="#E2E2F0" height="33.0679" rx="2.5" ry="2.5" style="stroke:#181818;stroke-width:0.5;" width="103.7677" x="212.1302" y="319.01"/><text fill="#000000" font-family="sans-serif" font-size="14" lengthAdjust="spacing" textLength="89.7677" x="219.1302" y="340.976">auth[0] : Auth</text><rect fill="#E2E2F0" height="33.0679" rx="2.5" ry="2.5" style="stroke:#181818;stroke-width:0.5;" width="120.5116" x="360.7433" y="5"/><text fill="#000000" font-family="sans-serif" font-size="14" lengthAdjust="spacing" textLength="106.5116" x="367.7433" y="26.9659">Message Broker</text><rect fill="#E2E2F0" height="33.0679" rx="2.5" ry="2.5" style="stroke:#181818;stroke-width:0.5;" width="120.5116" x="360.7433" y="319.01"/><text fill="#000000" font-family="sans-serif" font-size="14" lengthAdjust="spacing" textLength="106.5116" x="367.7433" y="340.976">Message Broker</text><rect fill="#E2E2F0" height="33.0679" rx="2.5" ry="2.5" style="stroke:#181818;stroke-width:0.5;" width="103.7677" x="516.1554" y="5"/><text fill="#000000" font-family="sans-serif" font-size="14" lengthAdjust="spacing" textLength="89.7677" x="523.1554" y="26.9659">auth[1] : Auth</text><rect fill="#E2E2F0" height="33.0679" rx="2.5" ry="2.5" style="stroke:#181818;stroke-width:0.5;" width="103.7677" x="516.1554" y="319.01"/><text fill="#000000" font-family="sans-serif" font-size="14" lengthAdjust="spacing" textLength="89.7677" x="523.1554" y="340.976">auth[1] : Auth</text><rect fill="#FFFFFF" height="229.2361" style="stroke:#181818;stroke-width:1.0;" width="10" x="259.014" y="72.7739"/><rect fill="#FFFFFF" height="31.706" style="stroke:#181818;stroke-width:1.0;" width="10" x="415.9991" y="193.892"/><rect fill="#FFFFFF" height="76.412" style="stroke:#181818;stroke-width:1.0;" width="10" x="563.0392" y="225.598"/><ellipse cx="49.3628" cy="72.0239" fill="#000000" rx="4" ry="4" style="stroke:#181818;stroke-width:1.5;"/><polygon fill="#181818" points="247.014,68.7739,257.014,72.7739,247.014,76.7739,251.014,72.7739" style="stroke:#181818;stroke-width:1.0;"/><line style="stroke:#181818;stroke-width:1.0;" x1="53.8628" x2="253.014" y1="72.7739" y2="72.7739"/><text fill="#000000" font-family="sans-serif" font-size="13" lengthAdjust="spacing" textLength="190.1512" x="56.8628" y="66.9649">POST /auth/register {userData}</text><line style="stroke:#181818;stroke-width:1.0;" x1="269.014" x2="311.014" y1="104.4799" y2="104.4799"/><line style="stroke:#181818;stroke-width:1.0;" x1="311.014" x2="311.014" y1="104.4799" y2="117.4799"/><line style="stroke:#181818;stroke-width:1.0;" x1="270.014" x2="311.014" y1="117.4799" y2="117.4799"/><polygon fill="#181818" points="280.014,113.4799,270.014,117.4799,280.014,121.4799,276.014,117.4799" style="stroke:#181818;stroke-width:1.0;"/><text fill="#000000" font-family="sans-serif" font-size="13" lengthAdjust="spacing" textLength="103.5321" x="276.014" y="98.6709">Valida requisi&#231;&#227;o</text><line style="stroke:#181818;stroke-width:1.0;" x1="269.014" x2="311.014" y1="149.186" y2="149.186"/><line style="stroke:#181818;stroke-width:1.0;" x1="311.014" x2="311.014" y1="149.186" y2="162.186"/><line style="stroke:#181818;stroke-width:1.0;" x1="270.014" x2="311.014" y1="162.186" y2="162.186"/><polygon fill="#181818" points="280.014,158.186,270.014,162.186,280.014,166.186,276.014,162.186" style="stroke:#181818;stroke-width:1.0;"/><text fill="#000000" font-family="sans-serif" font-size="13" lengthAdjust="spacing" textLength="90.9871" x="276.014" y="143.377">save(userData)</text><polygon fill="#181818" points="403.9991,189.892,413.9991,193.892,403.9991,197.892,407.9991,193.892" style="stroke:#181818;stroke-width:1.0;"/><line style="stroke:#181818;stroke-width:1.0;" x1="269.014" x2="409.9991" y1="193.892" y2="193.892"/><text fill="#000000" font-family="sans-serif" font-size="13" lengthAdjust="spacing" textLength="127.9851" x="276.014" y="188.083">publish(userCreated)</text><polygon fill="#181818" points="551.0392,221.598,561.0392,225.598,551.0392,229.598,555.0392,225.598" style="stroke:#181818;stroke-width:1.0;"/><line style="stroke:#181818;stroke-width:1.0;" x1="420.9991" x2="557.0392" y1="225.598" y2="225.598"/><text fill="#000000" font-family="sans-serif" font-size="13" lengthAdjust="spacing" textLength="118.0401" x="427.9991" y="219.789">notify(userCreated)</text><line style="stroke:#181818;stroke-width:1.0;" x1="573.0392" x2="615.0392" y1="257.304" y2="257.304"/><line style="stroke:#181818;stroke-width:1.0;" x1="615.0392" x2="615.0392" y1="257.304" y2="270.304"/><line style="stroke:#181818;stroke-width:1.0;" x1="574.0392" x2="615.0392" y1="270.304" y2="270.304"/><polygon fill="#181818" points="584.0392,266.304,574.0392,270.304,584.0392,274.304,580.0392,270.304" style="stroke:#181818;stroke-width:1.0;"/><text fill="#000000" font-family="sans-serif" font-size="13" lengthAdjust="spacing" textLength="62.218" x="580.0392" y="251.495">save(user)</text><ellipse cx="49.3628" cy="301.26" fill="#000000" rx="4" ry="4" style="stroke:#181818;stroke-width:1.5;"/><polygon fill="#181818" points="66.3628,298.01,56.3628,302.01,66.3628,306.01,62.3628,302.01" style="stroke:#181818;stroke-width:1.0;"/><line style="stroke:#181818;stroke-width:1.0;stroke-dasharray:2.0,2.0;" x1="60.3628" x2="263.014" y1="302.01" y2="302.01"/><text fill="#000000" font-family="sans-serif" font-size="13" lengthAdjust="spacing" textLength="73.918" x="66.8628" y="296.201">201 Created</text><!--SRC=[RLAzJkGm4Exp59ze5Wh4vieKI7TGN8D0nue6KSmwi-pe73lOJYGutSj0mGCWdY0lXktiBbdkgjYUcUylCyCvhyI8gIsiHqikY9AMJ61VJ6uu-BbONE5C2vjm0F9G-RZVGrrOtyxlKE5xFEMsz3JVxxfWx-cUySFPt-noLxFy3r3v3r1P53DSRgWPAtf2rn0SFtJYPNWTNcooG51EoCKQZEqjD4kmhXZ7O8zFHrKLhYwl5pX9bnF7z-83E_pfFBjp2lIt81MafqWqciZSgOfhThqeHazQQe95Y4uC62sxHhmVtjb3MqMwIKABF8zFtfjnRgexeT-mavKeIdQdI9pzO6VaAvoddW-tie-AptgphD1sIor-dUjdZgETEhLihSNaP_Z5hOwyQGbggiSzY2fWkn2_OdmOdesA4WxPjwpNb6pPew9PRbMKLOmwoEfndwVcAT5UdkMeivmWx7n4WLcLRwsfOzvaT_zSsGQ-Kt65BEBYaWQrmrjSZvXcDZ6ckOdW-7GxMU7RlCH6s5JNgENBm_m3]--></g></svg>