<svg xmlns="http://www.w3.org/2000/svg" xmlns:xlink="http://www.w3.org/1999/xlink" contentStyleType="text/css" height="530.4px" preserveAspectRatio="none" style="width:1188px;height:530px;background:#FFFFFF;" version="1.1" viewBox="0 0 1188 530" width="1188.8px" zoomAndPan="magnify"><defs/><g><rect fill="#FFFFFF" height="427.9074" style="stroke:#181818;stroke-width:0.8000000000000002;" width="8" x="199.9312" y="58.2191"/><rect fill="#FFFFFF" height="126.8241" style="stroke:#181818;stroke-width:0.8000000000000002;" width="8" x="380.0321" y="155.1136"/><rect fill="#FFFFFF" height="167.3889" style="stroke:#181818;stroke-width:0.8000000000000002;" width="8" x="517.1789" y="180.4784"/><rect fill="#FFFFFF" height="177.7889" style="stroke:#181818;stroke-width:0.8000000000000002;" width="8" x="695.0598" y="205.8432"/><rect fill="#FFFFFF" height="188.1889" style="stroke:#181818;stroke-width:0.8000000000000002;" width="8" x="880.9376" y="231.208"/><rect fill="#FFFFFF" height="198.5889" style="stroke:#181818;stroke-width:0.8000000000000002;" width="8" x="1012.4843" y="256.5728"/><rect fill="#FFFFFF" height="204.1889" style="stroke:#181818;stroke-width:0.8000000000000002;" width="8" x="1104.7676" y="281.9377"/><line style="stroke:#181818;stroke-width:0.4000000000000001;stroke-dasharray:5.0,5.0;" x1="39.2" x2="39.2" y1="31.2543" y2="500.5265"/><line style="stroke:#181818;stroke-width:0.4000000000000001;stroke-dasharray:5.0,5.0;" x1="203.7891" x2="203.7891" y1="31.2543" y2="500.5265"/><line style="stroke:#181818;stroke-width:0.4000000000000001;stroke-dasharray:5.0,5.0;" x1="383.8275" x2="383.8275" y1="31.2543" y2="500.5265"/><line style="stroke:#181818;stroke-width:0.4000000000000001;stroke-dasharray:5.0,5.0;" x1="521.0368" x2="521.0368" y1="31.2543" y2="500.5265"/><line style="stroke:#181818;stroke-width:0.4000000000000001;stroke-dasharray:5.0,5.0;" x1="698.921" x2="698.921" y1="31.2543" y2="500.5265"/><line style="stroke:#181818;stroke-width:0.4000000000000001;stroke-dasharray:5.0,5.0;" x1="884.7987" x2="884.7987" y1="31.2543" y2="500.5265"/><line style="stroke:#181818;stroke-width:0.4000000000000001;stroke-dasharray:5.0,5.0;" x1="1016.2764" x2="1016.2764" y1="31.2543" y2="500.5265"/><line style="stroke:#181818;stroke-width:0.4000000000000001;stroke-dasharray:5.0,5.0;" x1="1108.5597" x2="1108.5597" y1="31.2543" y2="500.5265"/><rect fill="#E2E2F0" height="26.4543" rx="2" ry="2" style="stroke:#181818;stroke-width:0.4000000000000001;" width="71.7806" x="4" y="4"/><text fill="#000000" font-family="sans-serif" font-size="11.2" lengthAdjust="spacing" textLength="60.5806" x="9.6" y="21.5727">HTTP Client</text><rect fill="#E2E2F0" height="26.4543" rx="2" ry="2" style="stroke:#181818;stroke-width:0.4000000000000001;" width="71.7806" x="4" y="499.7265"/><text fill="#000000" font-family="sans-serif" font-size="11.2" lengthAdjust="spacing" textLength="60.5806" x="9.6" y="517.2993">HTTP Client</text><rect fill="#E2E2F0" height="26.4543" rx="2" ry="2" style="stroke:#181818;stroke-width:0.4000000000000001;" width="161.8842" x="122.9891" y="4"/><text fill="#000000" font-family="sans-serif" font-size="11.2" lengthAdjust="spacing" textLength="150.6842" x="128.5891" y="21.5727">lendingCom[0] : lendingCom</text><rect fill="#E2E2F0" height="26.4543" rx="2" ry="2" style="stroke:#181818;stroke-width:0.4000000000000001;" width="161.8842" x="122.9891" y="499.7265"/><text fill="#000000" font-family="sans-serif" font-size="11.2" lengthAdjust="spacing" textLength="150.6842" x="128.5891" y="517.2993">lendingCom[0] : lendingCom</text><rect fill="#E2E2F0" height="26.4543" rx="2" ry="2" style="stroke:#181818;stroke-width:0.4000000000000001;" width="96.4093" x="335.8275" y="4"/><text fill="#000000" font-family="sans-serif" font-size="11.2" lengthAdjust="spacing" textLength="85.2093" x="341.4275" y="21.5727">Message Broker</text><rect fill="#E2E2F0" height="26.4543" rx="2" ry="2" style="stroke:#181818;stroke-width:0.4000000000000001;" width="96.4093" x="335.8275" y="499.7265"/><text fill="#000000" font-family="sans-serif" font-size="11.2" lengthAdjust="spacing" textLength="85.2093" x="341.4275" y="517.2993">Message Broker</text><rect fill="#E2E2F0" height="26.4543" rx="2" ry="2" style="stroke:#181818;stroke-width:0.4000000000000001;" width="161.8842" x="440.2368" y="4"/><text fill="#000000" font-family="sans-serif" font-size="11.2" lengthAdjust="spacing" textLength="150.6842" x="445.8368" y="21.5727">lendingCom[1] : lendingCom</text><rect fill="#E2E2F0" height="26.4543" rx="2" ry="2" style="stroke:#181818;stroke-width:0.4000000000000001;" width="161.8842" x="440.2368" y="499.7265"/><text fill="#000000" font-family="sans-serif" font-size="11.2" lengthAdjust="spacing" textLength="150.6842" x="445.8368" y="517.2993">lendingCom[1] : lendingCom</text><rect fill="#E2E2F0" height="26.4543" rx="2" ry="2" style="stroke:#181818;stroke-width:0.4000000000000001;" width="177.8777" x="610.121" y="4"/><text fill="#000000" font-family="sans-serif" font-size="11.2" lengthAdjust="spacing" textLength="166.6777" x="615.721" y="21.5727">lendingQuery[0] : lendingQuery</text><rect fill="#E2E2F0" height="26.4543" rx="2" ry="2" style="stroke:#181818;stroke-width:0.4000000000000001;" width="177.8777" x="610.121" y="499.7265"/><text fill="#000000" font-family="sans-serif" font-size="11.2" lengthAdjust="spacing" textLength="166.6777" x="615.721" y="517.2993">lendingQuery[0] : lendingQuery</text><rect fill="#E2E2F0" height="26.4543" rx="2" ry="2" style="stroke:#181818;stroke-width:0.4000000000000001;" width="177.8777" x="795.9987" y="4"/><text fill="#000000" font-family="sans-serif" font-size="11.2" lengthAdjust="spacing" textLength="166.6777" x="801.5987" y="21.5727">lendingQuery[1] : lendingQuery</text><rect fill="#E2E2F0" height="26.4543" rx="2" ry="2" style="stroke:#181818;stroke-width:0.4000000000000001;" width="177.8777" x="795.9987" y="499.7265"/><text fill="#000000" font-family="sans-serif" font-size="11.2" lengthAdjust="spacing" textLength="166.6777" x="801.5987" y="517.2993">lendingQuery[1] : lendingQuery</text><rect fill="#E2E2F0" height="26.4543" rx="2" ry="2" style="stroke:#181818;stroke-width:0.4000000000000001;" width="69.2158" x="981.8764" y="4"/><text fill="#000000" font-family="sans-serif" font-size="11.2" lengthAdjust="spacing" textLength="58.0158" x="987.4764" y="21.5727">top[0] : top</text><rect fill="#E2E2F0" height="26.4543" rx="2" ry="2" style="stroke:#181818;stroke-width:0.4000000000000001;" width="69.2158" x="981.8764" y="499.7265"/><text fill="#000000" font-family="sans-serif" font-size="11.2" lengthAdjust="spacing" textLength="58.0158" x="987.4764" y="517.2993">top[0] : top</text><rect fill="#E2E2F0" height="26.4543" rx="2" ry="2" style="stroke:#181818;stroke-width:0.4000000000000001;" width="69.2158" x="1074.1597" y="4"/><text fill="#000000" font-family="sans-serif" font-size="11.2" lengthAdjust="spacing" textLength="58.0158" x="1079.7597" y="21.5727">top[1] : top</text><rect fill="#E2E2F0" height="26.4543" rx="2" ry="2" style="stroke:#181818;stroke-width:0.4000000000000001;" width="69.2158" x="1074.1597" y="499.7265"/><text fill="#000000" font-family="sans-serif" font-size="11.2" lengthAdjust="spacing" textLength="58.0158" x="1079.7597" y="517.2993">top[1] : top</text><rect fill="#FFFFFF" height="427.9074" style="stroke:#181818;stroke-width:0.8000000000000002;" width="8" x="199.9312" y="58.2191"/><rect fill="#FFFFFF" height="126.8241" style="stroke:#181818;stroke-width:0.8000000000000002;" width="8" x="380.0321" y="155.1136"/><rect fill="#FFFFFF" height="167.3889" style="stroke:#181818;stroke-width:0.8000000000000002;" width="8" x="517.1789" y="180.4784"/><rect fill="#FFFFFF" height="177.7889" style="stroke:#181818;stroke-width:0.8000000000000002;" width="8" x="695.0598" y="205.8432"/><rect fill="#FFFFFF" height="188.1889" style="stroke:#181818;stroke-width:0.8000000000000002;" width="8" x="880.9376" y="231.208"/><rect fill="#FFFFFF" height="198.5889" style="stroke:#181818;stroke-width:0.8000000000000002;" width="8" x="1012.4843" y="256.5728"/><rect fill="#FFFFFF" height="204.1889" style="stroke:#181818;stroke-width:0.8000000000000002;" width="8" x="1104.7676" y="281.9377"/><ellipse cx="39.4903" cy="57.6191" fill="#000000" rx="3.2" ry="3.2" style="stroke:#181818;stroke-width:1.2000000000000002;"/><polygon fill="#181818" points="190.3312,55.0191,198.3312,58.2191,190.3312,61.4191,193.5312,58.2191" style="stroke:#181818;stroke-width:0.8000000000000002;"/><line style="stroke:#181818;stroke-width:0.8000000000000002;" x1="43.0903" x2="195.1312" y1="58.2191" y2="58.2191"/><text fill="#000000" font-family="sans-serif" font-size="10.4" lengthAdjust="spacing" textLength="144.8409" x="45.4903" y="53.5719">POST /lendings {lendingData}</text><line style="stroke:#181818;stroke-width:0.8000000000000002;" x1="207.9312" x2="241.5312" y1="83.584" y2="83.584"/><line style="stroke:#181818;stroke-width:0.8000000000000002;" x1="241.5312" x2="241.5312" y1="83.584" y2="93.984"/><line style="stroke:#181818;stroke-width:0.8000000000000002;" x1="208.7312" x2="241.5312" y1="93.984" y2="93.984"/><polygon fill="#181818" points="216.7312,90.784,208.7312,93.984,216.7312,97.184,213.5312,93.984" style="stroke:#181818;stroke-width:0.8000000000000002;"/><text fill="#000000" font-family="sans-serif" font-size="10.4" lengthAdjust="spacing" textLength="152.9009" x="213.5312" y="78.9368">Validar token JWT e permiss&#245;es</text><line style="stroke:#181818;stroke-width:0.8000000000000002;" x1="207.9312" x2="241.5312" y1="119.3488" y2="119.3488"/><line style="stroke:#181818;stroke-width:0.8000000000000002;" x1="241.5312" x2="241.5312" y1="119.3488" y2="129.7488"/><line style="stroke:#181818;stroke-width:0.8000000000000002;" x1="208.7312" x2="241.5312" y1="129.7488" y2="129.7488"/><polygon fill="#181818" points="216.7312,126.5488,208.7312,129.7488,216.7312,132.9488,213.5312,129.7488" style="stroke:#181818;stroke-width:0.8000000000000002;"/><text fill="#000000" font-family="sans-serif" font-size="10.4" lengthAdjust="spacing" textLength="88.0985" x="213.5312" y="114.7016">save(lendingData)</text><polygon fill="#181818" points="370.4321,151.9136,378.4321,155.1136,370.4321,158.3136,373.6321,155.1136" style="stroke:#181818;stroke-width:0.8000000000000002;"/><line style="stroke:#181818;stroke-width:0.8000000000000002;" x1="207.9312" x2="375.2321" y1="155.1136" y2="155.1136"/><text fill="#000000" font-family="sans-serif" font-size="10.4" lengthAdjust="spacing" textLength="117.6969" x="213.5312" y="150.4664">publish(lendingCreated)</text><polygon fill="#181818" points="507.5789,177.2784,515.5789,180.4784,507.5789,183.6784,510.7789,180.4784" style="stroke:#181818;stroke-width:0.8000000000000002;"/><line style="stroke:#181818;stroke-width:0.8000000000000002;" x1="388.0321" x2="512.3789" y1="180.4784" y2="180.4784"/><text fill="#000000" font-family="sans-serif" font-size="10.4" lengthAdjust="spacing" textLength="109.7409" x="393.6321" y="175.8312">notify(lendingCreated)</text><polygon fill="#181818" points="685.4598,202.6432,693.4598,205.8432,685.4598,209.0432,688.6598,205.8432" style="stroke:#181818;stroke-width:0.8000000000000002;"/><line style="stroke:#181818;stroke-width:0.8000000000000002;" x1="388.0321" x2="690.2598" y1="205.8432" y2="205.8432"/><text fill="#000000" font-family="sans-serif" font-size="10.4" lengthAdjust="spacing" textLength="109.7409" x="393.6321" y="201.196">notify(lendingCreated)</text><polygon fill="#181818" points="871.3376,228.008,879.3376,231.208,871.3376,234.408,874.5376,231.208" style="stroke:#181818;stroke-width:0.8000000000000002;"/><line style="stroke:#181818;stroke-width:0.8000000000000002;" x1="388.0321" x2="876.1376" y1="231.208" y2="231.208"/><text fill="#000000" font-family="sans-serif" font-size="10.4" lengthAdjust="spacing" textLength="109.7409" x="393.6321" y="226.5608">notify(lendingCreated)</text><polygon fill="#181818" points="1002.8843,253.3728,1010.8843,256.5728,1002.8843,259.7728,1006.0843,256.5728" style="stroke:#181818;stroke-width:0.8000000000000002;"/><line style="stroke:#181818;stroke-width:0.8000000000000002;" x1="388.0321" x2="1007.6843" y1="256.5728" y2="256.5728"/><text fill="#000000" font-family="sans-serif" font-size="10.4" lengthAdjust="spacing" textLength="109.7409" x="393.6321" y="251.9256">notify(lendingCreated)</text><polygon fill="#181818" points="1095.1676,278.7377,1103.1676,281.9377,1095.1676,285.1377,1098.3676,281.9377" style="stroke:#181818;stroke-width:0.8000000000000002;"/><line style="stroke:#181818;stroke-width:0.8000000000000002;" x1="384.0321" x2="1099.9676" y1="281.9377" y2="281.9377"/><text fill="#000000" font-family="sans-serif" font-size="10.4" lengthAdjust="spacing" textLength="109.7409" x="389.6321" y="277.2904">notify(lendingCreated)</text><line style="stroke:#181818;stroke-width:0.8000000000000002;" x1="525.1789" x2="558.7789" y1="307.3025" y2="307.3025"/><line style="stroke:#181818;stroke-width:0.8000000000000002;" x1="558.7789" x2="558.7789" y1="307.3025" y2="317.7025"/><line style="stroke:#181818;stroke-width:0.8000000000000002;" x1="525.9789" x2="558.7789" y1="317.7025" y2="317.7025"/><polygon fill="#181818" points="533.9789,314.5025,525.9789,317.7025,533.9789,320.9025,530.7789,317.7025" style="stroke:#181818;stroke-width:0.8000000000000002;"/><text fill="#000000" font-family="sans-serif" font-size="10.4" lengthAdjust="spacing" textLength="65.0833" x="530.7789" y="302.6553">save(lending)</text><line style="stroke:#181818;stroke-width:0.8000000000000002;" x1="703.0598" x2="736.6598" y1="343.0673" y2="343.0673"/><line style="stroke:#181818;stroke-width:0.8000000000000002;" x1="736.6598" x2="736.6598" y1="343.0673" y2="353.4673"/><line style="stroke:#181818;stroke-width:0.8000000000000002;" x1="703.8598" x2="736.6598" y1="353.4673" y2="353.4673"/><polygon fill="#181818" points="711.8598,350.2673,703.8598,353.4673,711.8598,356.6673,708.6598,353.4673" style="stroke:#181818;stroke-width:0.8000000000000002;"/><text fill="#000000" font-family="sans-serif" font-size="10.4" lengthAdjust="spacing" textLength="65.0833" x="708.6598" y="338.4201">save(lending)</text><line style="stroke:#181818;stroke-width:0.8000000000000002;" x1="888.9376" x2="922.5376" y1="378.8321" y2="378.8321"/><line style="stroke:#181818;stroke-width:0.8000000000000002;" x1="922.5376" x2="922.5376" y1="378.8321" y2="389.2321"/><line style="stroke:#181818;stroke-width:0.8000000000000002;" x1="889.7376" x2="922.5376" y1="389.2321" y2="389.2321"/><polygon fill="#181818" points="897.7376,386.0321,889.7376,389.2321,897.7376,392.4321,894.5376,389.2321" style="stroke:#181818;stroke-width:0.8000000000000002;"/><text fill="#000000" font-family="sans-serif" font-size="10.4" lengthAdjust="spacing" textLength="65.0833" x="894.5376" y="374.1849">save(lending)</text><line style="stroke:#181818;stroke-width:0.8000000000000002;" x1="1020.4843" x2="1054.0843" y1="414.5969" y2="414.5969"/><line style="stroke:#181818;stroke-width:0.8000000000000002;" x1="1054.0843" x2="1054.0843" y1="414.5969" y2="424.9969"/><line style="stroke:#181818;stroke-width:0.8000000000000002;" x1="1021.2843" x2="1054.0843" y1="424.9969" y2="424.9969"/><polygon fill="#181818" points="1029.2843,421.7969,1021.2843,424.9969,1029.2843,428.1969,1026.0843,424.9969" style="stroke:#181818;stroke-width:0.8000000000000002;"/><text fill="#000000" font-family="sans-serif" font-size="10.4" lengthAdjust="spacing" textLength="65.0833" x="1026.0843" y="409.9497">save(lending)</text><line style="stroke:#181818;stroke-width:0.8000000000000002;" x1="1112.7676" x2="1146.3676" y1="450.3617" y2="450.3617"/><line style="stroke:#181818;stroke-width:0.8000000000000002;" x1="1146.3676" x2="1146.3676" y1="450.3617" y2="460.7617"/><line style="stroke:#181818;stroke-width:0.8000000000000002;" x1="1113.5676" x2="1146.3676" y1="460.7617" y2="460.7617"/><polygon fill="#181818" points="1121.5676,457.5617,1113.5676,460.7617,1121.5676,463.9617,1118.3676,460.7617" style="stroke:#181818;stroke-width:0.8000000000000002;"/><text fill="#000000" font-family="sans-serif" font-size="10.4" lengthAdjust="spacing" textLength="65.0833" x="1118.3676" y="445.7145">save(lending)</text><ellipse cx="39.4903" cy="485.5265" fill="#000000" rx="3.2" ry="3.2" style="stroke:#181818;stroke-width:1.2000000000000002;"/><polygon fill="#181818" points="53.0903,482.9265,45.0903,486.1265,53.0903,489.3265,49.8903,486.1265" style="stroke:#181818;stroke-width:0.8000000000000002;"/><line style="stroke:#181818;stroke-width:0.8000000000000002;stroke-dasharray:2.0,2.0;" x1="48.2903" x2="203.1312" y1="486.1265" y2="486.1265"/><text fill="#000000" font-family="sans-serif" font-size="10.4" lengthAdjust="spacing" textLength="59.1344" x="53.4903" y="481.4793">201 Created</text><!--SRC=[bLGxRjmm4ErrYe4RUmiZOaeLBh8kWW26Vmkd25BCKhCsOOcKIKg04-GoIP4313c1BXQIAsb5PUMrAv7Il7bltipe6Cvf8wIGkG9be49j1HSLIaic6TtWwEDgTGNBGf2qHu06U3Z6CGN9NCZxfIg_f5yXWzqzGBfh6eCko1Yy9_YWrIFf45YkP_Eo-RniB-Yw9lqSoGbl8a4l8TbBI3P1MbLjgTmXnBbd-dy8cuIm94cEuRBpb623tw0k4JGzrSA8zdVxI_dU870jKBjl85MZd0fXbKwsC52dPqD56LnTtgxWNNStyBqxdQF57mboAnfqJ4DB0dztWrlIZU043HOYHr1EuoD98AX8byAOzYyv2nJ7elHwapuBH0hk0bftu4-VLt42Jtb7Mcm4H-_3E3U5Gc6eS3-1mOPEHdKjaYYmN6TGrUj2c8S-Qgd9LPqlTWQuKNCwRgWgd0o_1JdcsqLmea3LrZs5DBRzARbJT4Acek81VTrgaPJhaIAMkQvOiNcUPnicDGAchqUc4oXx0saFzJDv61KcTm3Cq-GKUJd6-x7kEy9YeyQjMmnTOnDJugWHq-3ZKDl4aqD8vwClS6V7GQe0O3ixPW71kErGcKh9d3IW6bQRgn9CpTq_Ju7xyM81MBL_3FXb3pCObdqqnwTdFJY3zywXplW98zjNupy0]--></g></svg>