<svg xmlns="http://www.w3.org/2000/svg" xmlns:xlink="http://www.w3.org/1999/xlink" contentStyleType="text/css" height="378px" preserveAspectRatio="none" style="width:1981px;height:378px;background:#FFFFFF;" version="1.1" viewBox="0 0 1981 378" width="1981px" zoomAndPan="magnify"><title>Vista f&#237;sica n&#237;vel 2</title><defs/><g><text fill="#000000" font-family="sans-serif" font-size="14" font-weight="bold" lengthAdjust="spacing" textLength="122.195" x="922.4025" y="24.9659">Vista f&#237;sica n&#237;vel 2</text><!--cluster messageBroker--><g id="cluster_messageBroker"><polygon fill="none" points="879,247.1379,889,237.1379,1093,237.1379,1093,351.2079,1083,361.2079,879,361.2079,879,247.1379" style="stroke:#181818;stroke-width:1.0;"/><line style="stroke:#181818;stroke-width:1.0;" x1="1083" x2="1093" y1="247.1379" y2="237.1379"/><line style="stroke:#181818;stroke-width:1.0;" x1="879" x2="1083" y1="247.1379" y2="247.1379"/><line style="stroke:#181818;stroke-width:1.0;" x1="1083" x2="1083" y1="247.1379" y2="361.2079"/><text fill="#000000" font-family="sans-serif" font-size="14" font-weight="bold" lengthAdjust="spacing" textLength="26.7644" x="968.6178" y="265.1039">mb:</text></g><!--cluster auth--><g id="cluster_auth"><polygon fill="none" points="16,56.0679,26,46.0679,155,46.0679,155,160.1379,145,170.1379,16,170.1379,16,56.0679" style="stroke:#181818;stroke-width:1.0;"/><line style="stroke:#181818;stroke-width:1.0;" x1="145" x2="155" y1="56.0679" y2="46.0679"/><line style="stroke:#181818;stroke-width:1.0;" x1="16" x2="145" y1="56.0679" y2="56.0679"/><line style="stroke:#181818;stroke-width:1.0;" x1="145" x2="145" y1="56.0679" y2="170.1379"/><text fill="#000000" font-family="sans-serif" font-size="14" font-weight="bold" lengthAdjust="spacing" textLength="55.3278" x="53.8361" y="74.0339">auth[n]:</text></g><!--cluster bookCom--><g id="cluster_bookCom"><polygon fill="none" points="195,56.0679,205,46.0679,383,46.0679,383,160.1379,373,170.1379,195,170.1379,195,56.0679" style="stroke:#181818;stroke-width:1.0;"/><line style="stroke:#181818;stroke-width:1.0;" x1="373" x2="383" y1="56.0679" y2="46.0679"/><line style="stroke:#181818;stroke-width:1.0;" x1="195" x2="373" y1="56.0679" y2="56.0679"/><line style="stroke:#181818;stroke-width:1.0;" x1="373" x2="373" y1="56.0679" y2="170.1379"/><text fill="#000000" font-family="sans-serif" font-size="14" font-weight="bold" lengthAdjust="spacing" textLength="89.8622" x="240.0689" y="74.0339">bookCom[n]:</text></g><!--cluster bookQuery--><g id="cluster_bookQuery"><polygon fill="none" points="423,56.0679,433,46.0679,601,46.0679,601,160.1379,591,170.1379,423,170.1379,423,56.0679" style="stroke:#181818;stroke-width:1.0;"/><line style="stroke:#181818;stroke-width:1.0;" x1="591" x2="601" y1="56.0679" y2="46.0679"/><line style="stroke:#181818;stroke-width:1.0;" x1="423" x2="591" y1="56.0679" y2="56.0679"/><line style="stroke:#181818;stroke-width:1.0;" x1="591" x2="591" y1="56.0679" y2="170.1379"/><text fill="#000000" font-family="sans-serif" font-size="14" font-weight="bold" lengthAdjust="spacing" textLength="100.7331" x="457.6334" y="74.0339">bookQuery[n]:</text></g><!--cluster lendingCom--><g id="cluster_lendingCom"><polygon fill="none" points="641,56.0679,651,46.0679,839,46.0679,839,160.1379,829,170.1379,641,170.1379,641,56.0679" style="stroke:#181818;stroke-width:1.0;"/><line style="stroke:#181818;stroke-width:1.0;" x1="829" x2="839" y1="56.0679" y2="46.0679"/><line style="stroke:#181818;stroke-width:1.0;" x1="641" x2="829" y1="56.0679" y2="56.0679"/><line style="stroke:#181818;stroke-width:1.0;" x1="829" x2="829" y1="56.0679" y2="170.1379"/><text fill="#000000" font-family="sans-serif" font-size="14" font-weight="bold" lengthAdjust="spacing" textLength="107.7926" x="682.1037" y="74.0339">lendingCom[n]:</text></g><!--cluster lendingQuery--><g id="cluster_lendingQuery"><polygon fill="none" points="879,56.0679,889,46.0679,1087,46.0679,1087,160.1379,1077,170.1379,879,170.1379,879,56.0679" style="stroke:#181818;stroke-width:1.0;"/><line style="stroke:#181818;stroke-width:1.0;" x1="1077" x2="1087" y1="56.0679" y2="46.0679"/><line style="stroke:#181818;stroke-width:1.0;" x1="879" x2="1077" y1="56.0679" y2="56.0679"/><line style="stroke:#181818;stroke-width:1.0;" x1="1077" x2="1077" y1="56.0679" y2="170.1379"/><text fill="#000000" font-family="sans-serif" font-size="14" font-weight="bold" lengthAdjust="spacing" textLength="118.6636" x="919.6682" y="74.0339">lendingQuery[n]:</text></g><!--cluster readerCom--><g id="cluster_readerCom"><polygon fill="none" points="1127,56.0679,1137,46.0679,1318,46.0679,1318,160.1379,1308,170.1379,1127,170.1379,1127,56.0679" style="stroke:#181818;stroke-width:1.0;"/><line style="stroke:#181818;stroke-width:1.0;" x1="1308" x2="1318" y1="56.0679" y2="46.0679"/><line style="stroke:#181818;stroke-width:1.0;" x1="1127" x2="1308" y1="56.0679" y2="56.0679"/><line style="stroke:#181818;stroke-width:1.0;" x1="1308" x2="1308" y1="56.0679" y2="170.1379"/><text fill="#000000" font-family="sans-serif" font-size="14" font-weight="bold" lengthAdjust="spacing" textLength="101.5311" x="1167.7344" y="74.0339">readerCom[n]:</text></g><!--cluster readerQuery--><g id="cluster_readerQuery"><polygon fill="none" points="1358,56.0679,1368,46.0679,1559,46.0679,1559,160.1379,1549,170.1379,1358,170.1379,1358,56.0679" style="stroke:#181818;stroke-width:1.0;"/><line style="stroke:#181818;stroke-width:1.0;" x1="1549" x2="1559" y1="56.0679" y2="46.0679"/><line style="stroke:#181818;stroke-width:1.0;" x1="1358" x2="1549" y1="56.0679" y2="56.0679"/><line style="stroke:#181818;stroke-width:1.0;" x1="1549" x2="1549" y1="56.0679" y2="170.1379"/><text fill="#000000" font-family="sans-serif" font-size="14" font-weight="bold" lengthAdjust="spacing" textLength="112.4021" x="1398.299" y="74.0339">readerQuery[n]:</text></g><!--cluster recom--><g id="cluster_recom"><polygon fill="none" points="1599,56.0679,1609,46.0679,1751,46.0679,1751,160.1379,1741,170.1379,1599,170.1379,1599,56.0679" style="stroke:#181818;stroke-width:1.0;"/><line style="stroke:#181818;stroke-width:1.0;" x1="1741" x2="1751" y1="56.0679" y2="46.0679"/><line style="stroke:#181818;stroke-width:1.0;" x1="1599" x2="1741" y1="56.0679" y2="56.0679"/><line style="stroke:#181818;stroke-width:1.0;" x1="1741" x2="1741" y1="56.0679" y2="170.1379"/><text fill="#000000" font-family="sans-serif" font-size="14" font-weight="bold" lengthAdjust="spacing" textLength="67.5113" x="1637.2444" y="74.0339">recom[n]:</text></g><!--cluster top--><g id="cluster_top"><polygon fill="none" points="1791,56.0679,1801,46.0679,1964,46.0679,1964,160.1379,1954,170.1379,1791,170.1379,1791,56.0679" style="stroke:#181818;stroke-width:1.0;"/><line style="stroke:#181818;stroke-width:1.0;" x1="1954" x2="1964" y1="56.0679" y2="46.0679"/><line style="stroke:#181818;stroke-width:1.0;" x1="1791" x2="1954" y1="56.0679" y2="56.0679"/><line style="stroke:#181818;stroke-width:1.0;" x1="1954" x2="1954" y1="56.0679" y2="170.1379"/><text fill="#000000" font-family="sans-serif" font-size="14" font-weight="bold" lengthAdjust="spacing" textLength="89.4037" x="1828.7982" y="74.0339">topQuery[n]:</text></g><!--entity Message Broker--><g id="elem_Message Broker"><rect fill="#F1F1F1" height="49.0679" rx="2.5" ry="2.5" style="stroke:#181818;stroke-width:0.5;" width="146.5116" x="922.74" y="288.1379"/><rect fill="#F1F1F1" height="10" style="stroke:#181818;stroke-width:0.5;" width="15" x="1049.2516" y="293.1379"/><rect fill="#F1F1F1" height="2" style="stroke:#181818;stroke-width:0.5;" width="4" x="1047.2516" y="295.1379"/><rect fill="#F1F1F1" height="2" style="stroke:#181818;stroke-width:0.5;" width="4" x="1047.2516" y="299.1379"/><text fill="#000000" font-family="sans-serif" font-size="14" lengthAdjust="spacing" textLength="106.5116" x="937.74" y="323.1039">Message Broker</text></g><!--entity Auth--><g id="elem_Auth"><rect fill="#F1F1F1" height="49.0679" rx="2.5" ry="2.5" style="stroke:#181818;stroke-width:0.5;" width="71.3039" x="59.35" y="97.0679"/><rect fill="#F1F1F1" height="10" style="stroke:#181818;stroke-width:0.5;" width="15" x="110.6539" y="102.0679"/><rect fill="#F1F1F1" height="2" style="stroke:#181818;stroke-width:0.5;" width="4" x="108.6539" y="104.0679"/><rect fill="#F1F1F1" height="2" style="stroke:#181818;stroke-width:0.5;" width="4" x="108.6539" y="108.0679"/><text fill="#000000" font-family="sans-serif" font-size="14" lengthAdjust="spacing" textLength="31.3039" x="74.35" y="132.0339">Auth</text></g><!--entity BooksQuery--><g id="elem_BooksQuery"><rect fill="#F1F1F1" height="49.0679" rx="2.5" ry="2.5" style="stroke:#181818;stroke-width:0.5;" width="120.6257" x="238.69" y="97.0679"/><rect fill="#F1F1F1" height="10" style="stroke:#181818;stroke-width:0.5;" width="15" x="339.3157" y="102.0679"/><rect fill="#F1F1F1" height="2" style="stroke:#181818;stroke-width:0.5;" width="4" x="337.3157" y="104.0679"/><rect fill="#F1F1F1" height="2" style="stroke:#181818;stroke-width:0.5;" width="4" x="337.3157" y="108.0679"/><text fill="#000000" font-family="sans-serif" font-size="14" lengthAdjust="spacing" textLength="80.6257" x="253.69" y="132.0339">BooksQuery</text></g><!--entity BooksCom--><g id="elem_BooksCom"><rect fill="#F1F1F1" height="49.0679" rx="2.5" ry="2.5" style="stroke:#181818;stroke-width:0.5;" width="110.6297" x="466.69" y="97.0679"/><rect fill="#F1F1F1" height="10" style="stroke:#181818;stroke-width:0.5;" width="15" x="557.3197" y="102.0679"/><rect fill="#F1F1F1" height="2" style="stroke:#181818;stroke-width:0.5;" width="4" x="555.3197" y="104.0679"/><rect fill="#F1F1F1" height="2" style="stroke:#181818;stroke-width:0.5;" width="4" x="555.3197" y="108.0679"/><text fill="#000000" font-family="sans-serif" font-size="14" lengthAdjust="spacing" textLength="70.6297" x="481.69" y="132.0339">BooksCom</text></g><!--entity LendingsCom--><g id="elem_LendingsCom"><rect fill="#F1F1F1" height="49.0679" rx="2.5" ry="2.5" style="stroke:#181818;stroke-width:0.5;" width="130.4816" x="684.76" y="97.0679"/><rect fill="#F1F1F1" height="10" style="stroke:#181818;stroke-width:0.5;" width="15" x="795.2416" y="102.0679"/><rect fill="#F1F1F1" height="2" style="stroke:#181818;stroke-width:0.5;" width="4" x="793.2416" y="104.0679"/><rect fill="#F1F1F1" height="2" style="stroke:#181818;stroke-width:0.5;" width="4" x="793.2416" y="108.0679"/><text fill="#000000" font-family="sans-serif" font-size="14" lengthAdjust="spacing" textLength="90.4816" x="699.76" y="132.0339">LendingsCom</text></g><!--entity LendingsQuery--><g id="elem_LendingsQuery"><rect fill="#F1F1F1" height="49.0679" rx="2.5" ry="2.5" style="stroke:#181818;stroke-width:0.5;" width="140.4776" x="922.76" y="97.0679"/><rect fill="#F1F1F1" height="10" style="stroke:#181818;stroke-width:0.5;" width="15" x="1043.2376" y="102.0679"/><rect fill="#F1F1F1" height="2" style="stroke:#181818;stroke-width:0.5;" width="4" x="1041.2376" y="104.0679"/><rect fill="#F1F1F1" height="2" style="stroke:#181818;stroke-width:0.5;" width="4" x="1041.2376" y="108.0679"/><text fill="#000000" font-family="sans-serif" font-size="14" lengthAdjust="spacing" textLength="100.4776" x="937.76" y="132.0339">LendingsQuery</text></g><!--entity ReadersCom--><g id="elem_ReadersCom"><rect fill="#F1F1F1" height="49.0679" rx="2.5" ry="2.5" style="stroke:#181818;stroke-width:0.5;" width="123.8597" x="1170.07" y="97.0679"/><rect fill="#F1F1F1" height="10" style="stroke:#181818;stroke-width:0.5;" width="15" x="1273.9297" y="102.0679"/><rect fill="#F1F1F1" height="2" style="stroke:#181818;stroke-width:0.5;" width="4" x="1271.9297" y="104.0679"/><rect fill="#F1F1F1" height="2" style="stroke:#181818;stroke-width:0.5;" width="4" x="1271.9297" y="108.0679"/><text fill="#000000" font-family="sans-serif" font-size="14" lengthAdjust="spacing" textLength="83.8597" x="1185.07" y="132.0339">ReadersCom</text></g><!--entity ReadersQuery--><g id="elem_ReadersQuery"><rect fill="#F1F1F1" height="49.0679" rx="2.5" ry="2.5" style="stroke:#181818;stroke-width:0.5;" width="133.8556" x="1401.07" y="97.0679"/><rect fill="#F1F1F1" height="10" style="stroke:#181818;stroke-width:0.5;" width="15" x="1514.9256" y="102.0679"/><rect fill="#F1F1F1" height="2" style="stroke:#181818;stroke-width:0.5;" width="4" x="1512.9256" y="104.0679"/><rect fill="#F1F1F1" height="2" style="stroke:#181818;stroke-width:0.5;" width="4" x="1512.9256" y="108.0679"/><text fill="#000000" font-family="sans-serif" font-size="14" lengthAdjust="spacing" textLength="93.8556" x="1416.07" y="132.0339">ReadersQuery</text></g><!--entity Recom--><g id="elem_Recom"><rect fill="#F1F1F1" height="49.0679" rx="2.5" ry="2.5" style="stroke:#181818;stroke-width:0.5;" width="84.8838" x="1642.56" y="97.0679"/><rect fill="#F1F1F1" height="10" style="stroke:#181818;stroke-width:0.5;" width="15" x="1707.4438" y="102.0679"/><rect fill="#F1F1F1" height="2" style="stroke:#181818;stroke-width:0.5;" width="4" x="1705.4438" y="104.0679"/><rect fill="#F1F1F1" height="2" style="stroke:#181818;stroke-width:0.5;" width="4" x="1705.4438" y="108.0679"/><text fill="#000000" font-family="sans-serif" font-size="14" lengthAdjust="spacing" textLength="44.8838" x="1657.56" y="132.0339">Recom</text></g><!--entity TopQuery--><g id="elem_TopQuery"><rect fill="#F1F1F1" height="49.0679" rx="2.5" ry="2.5" style="stroke:#181818;stroke-width:0.5;" width="105.2677" x="1834.37" y="97.0679"/><rect fill="#F1F1F1" height="10" style="stroke:#181818;stroke-width:0.5;" width="15" x="1919.6377" y="102.0679"/><rect fill="#F1F1F1" height="2" style="stroke:#181818;stroke-width:0.5;" width="4" x="1917.6377" y="104.0679"/><rect fill="#F1F1F1" height="2" style="stroke:#181818;stroke-width:0.5;" width="4" x="1917.6377" y="108.0679"/><text fill="#000000" font-family="sans-serif" font-size="14" lengthAdjust="spacing" textLength="65.2677" x="1849.37" y="132.0339">TopQuery</text></g><!--link auth to messageBroker--><g id="link_auth_messageBroker"><path d="M31.8527,170.4082 C31.9463,170.6126 32.0409,170.8165 32.1366,171.0198 C32.5195,171.8332 32.9197,172.6376 33.3382,173.4312 C34.175,175.0184 35.0846,176.5622 36.0731,178.0476 C38.05,181.0184 40.3425,183.7554 43,186.1379 C92.46,230.4879 124.43,202.4879 190,213.1379 C343.2,238.0279 515.935,262.4729 651.1188,280.7892 C718.7106,289.9473 776.9147,297.5732 818.5952,302.9565 C839.4354,305.6482 856.1447,307.7791 867.8312,309.2606 C870.7528,309.631 873.3605,309.9608 875.6403,310.2486 C876.7802,310.3925 877.8382,310.5259 878.8124,310.6486 " fill="none" id="auth-messageBroker" style="stroke:#181818;stroke-width:1.0;"/><text fill="#000000" font-family="sans-serif" font-size="13" lengthAdjust="spacing" textLength="38.116" x="191" y="209.0349">AMQP</text></g><!--link bookCom to messageBroker--><g id="link_bookCom_messageBroker"><path d="M211.6548,170.4163 C211.7513,170.6207 211.8489,170.8246 211.9475,171.0279 C212.3421,171.8411 212.7538,172.6453 213.1833,173.4386 C214.0424,175.0254 214.9728,176.5686 215.9805,178.0533 C217.9958,181.0228 220.32,183.7579 223,186.1379 C278.695,235.6179 442.5475,266.9004 593.5375,285.8629 C669.0325,295.3442 741.3119,301.7454 795.2481,305.8014 C822.2163,307.8293 844.5986,309.271 860.5042,310.2181 C864.4806,310.4549 868.0522,310.6608 871.1895,310.8372 C872.7581,310.9254 874.2182,311.0062 875.566,311.0799 C876.2398,311.1167 876.8857,311.1517 877.503,311.185 C877.8116,311.2016 878.1131,311.2178 878.4074,311.2335 " fill="none" id="bookCom-messageBroker" style="stroke:#181818;stroke-width:1.0;"/><text fill="#000000" font-family="sans-serif" font-size="13" lengthAdjust="spacing" textLength="38.116" x="258" y="209.0349">AMQP</text></g><!--link bookQuery to messageBroker--><g id="link_bookQuery_messageBroker"><path d="M440.1747,170.316 C440.2225,170.419 440.2706,170.5218 440.3188,170.6246 C440.7052,171.4467 441.1075,172.261 441.5264,173.0659 C442.3643,174.6756 443.2684,176.2473 444.2442,177.7666 C446.1958,180.8053 448.4338,183.6342 451,186.1379 C522.605,255.9979 630.4675,287.4404 720.9913,301.3892 C766.2531,308.3635 807.1803,310.9645 837.0733,311.8074 C852.0198,312.2289 864.2077,312.2109 872.7996,312.0804 C874.9476,312.0477 876.8708,312.008 878.5562,311.9664 " fill="none" id="bookQuery-messageBroker" style="stroke:#181818;stroke-width:1.0;"/><text fill="#000000" font-family="sans-serif" font-size="13" lengthAdjust="spacing" textLength="38.116" x="479" y="209.0349">AMQP</text></g><!--link lendingCom to messageBroker--><g id="link_lendingCom_messageBroker"><path d="M659.6411,170.3057 C659.7335,170.5159 659.8267,170.7257 659.9207,170.9352 C660.1087,171.3541 660.3,171.7717 660.4945,172.1877 C661.2725,173.8518 662.1027,175.4907 662.9887,177.0915 C664.7605,180.2932 666.755,183.3429 669,186.1379 C703.46,229.0429 756.8075,260.1254 802.1025,280.6292 C824.75,290.881 845.3844,298.4882 860.6381,303.6062 C864.4516,304.8857 867.9287,306.0096 871.017,306.9804 C872.5611,307.4658 874.008,307.9129 875.3511,308.322 C876.0226,308.5265 876.6682,308.7216 877.287,308.9072 C877.5964,309 877.8991,309.0904 878.1951,309.1785 C878.343,309.2226 878.4893,309.266 878.6338,309.3089 " fill="none" id="lendingCom-messageBroker" style="stroke:#181818;stroke-width:1.0;"/><text fill="#000000" font-family="sans-serif" font-size="13" lengthAdjust="spacing" textLength="38.116" x="693" y="209.0349">AMQP</text></g><!--link lendingQuery to messageBroker--><g id="link_lendingQuery_messageBroker"><path d="M887,170.7332 C887,171.0495 887,171.3668 887,171.6849 C887,172.9576 887,174.2447 887,175.5449 C887,178.1453 887,180.7982 887,183.493 C887,194.2723 887,205.7229 887,217.1729 C887,222.8979 887,228.6228 887,234.2635 C887,234.9685 887,235.6723 887,236.3746 C887,236.5502 887,236.7257 887,236.901 " fill="none" id="lendingQuery-messageBroker" style="stroke:#181818;stroke-width:1.0;"/><text fill="#000000" font-family="sans-serif" font-size="13" lengthAdjust="spacing" textLength="38.116" x="888" y="209.0349">AMQP</text></g><!--link readerCom to messageBroker--><g id="link_readerCom_messageBroker"><path d="M1126.8767,136.2043 C1126.8208,136.2904 1126.7647,136.3768 1126.7084,136.4635 C1126.5957,136.6368 1126.4819,136.8113 1126.3671,136.9868 C1125.9078,137.689 1125.4319,138.4086 1124.9396,139.1436 C1122.9706,142.0837 1120.7406,145.271 1118.275,148.5804 C1108.4125,161.8179 1094.78,177.0079 1079,186.1379 C1070.56,191.0279 913.95,214.2979 907,221.1379 C903.385,224.6929 900.3569,228.7439 897.8259,233.1149 C897.1932,234.2076 896.5915,235.3204 896.0195,236.4504 C895.948,236.5916 895.877,236.7331 895.8064,236.8749 " fill="none" id="readerCom-messageBroker" style="stroke:#181818;stroke-width:1.0;"/><text fill="#000000" font-family="sans-serif" font-size="13" lengthAdjust="spacing" textLength="38.116" x="1040" y="209.0349">AMQP</text></g><!--link readerQuery to messageBroker--><g id="link_readerQuery_messageBroker"><path d="M1357.8858,136.7868 C1357.7749,136.9635 1357.663,137.1412 1357.55,137.3201 C1357.0981,138.0355 1356.6295,138.7683 1356.1444,139.5162 C1354.2041,142.5081 1352.0009,145.7435 1349.5563,149.0904 C1339.7775,162.4779 1326.135,177.6479 1310,186.1379 C1221.65,232.6279 1186.5,204.9179 1087,213.1379 C1077.02,213.9679 914.66,214.6979 907,221.1379 C903.1188,224.4004 899.8898,228.2307 897.2115,232.4397 C896.5419,233.492 895.9067,234.5679 895.3044,235.6645 C895.1538,235.9387 895.0053,236.2141 894.8588,236.4908 C894.7855,236.6292 894.7127,236.7679 894.6405,236.9068 " fill="none" id="readerQuery-messageBroker" style="stroke:#181818;stroke-width:1.0;"/><text fill="#000000" font-family="sans-serif" font-size="13" lengthAdjust="spacing" textLength="38.116" x="1290" y="209.0349">AMQP</text></g><!--link recom to messageBroker--><g id="link_recom_messageBroker"><path d="M1598.8768,136.7644 C1598.7658,136.9408 1598.6538,137.1184 1598.5407,137.2971 C1598.0884,138.0117 1597.6194,138.7436 1597.1339,139.4907 C1595.192,142.4794 1592.9872,145.712 1590.5413,149.0567 C1580.7575,162.4354 1567.115,177.6079 1551,186.1379 C1466.28,230.9979 1432.62,206.2379 1337,213.1379 C1325.08,213.9979 916.24,213.5679 907,221.1379 C903.0763,224.3504 899.8153,228.1431 897.1135,232.3245 C896.438,233.3698 895.7975,234.4395 895.1903,235.5304 C895.0385,235.8032 894.8888,236.0772 894.7411,236.3526 C894.6673,236.4903 894.594,236.6283 894.5212,236.7666 " fill="none" id="recom-messageBroker" style="stroke:#181818;stroke-width:1.0;"/><text fill="#000000" font-family="sans-serif" font-size="13" lengthAdjust="spacing" textLength="38.116" x="1532" y="209.0349">AMQP</text></g><!--link top to messageBroker--><g id="link_top_messageBroker"><path d="M1790.9607,136.3502 C1790.9053,136.4371 1790.8496,136.5243 1790.7937,136.6117 C1790.6819,136.7866 1790.569,136.9626 1790.4551,137.1397 C1789.9994,137.8481 1789.5269,138.5739 1789.0381,139.315 C1787.0828,142.2794 1784.8656,145.4895 1782.41,148.8167 C1772.5875,162.1254 1758.95,177.3079 1743,186.1379 C1678.38,221.9279 1652.59,206.6779 1579,213.1379 C1560.4,214.7679 921.48,209.3679 907,221.1379 C903.0663,224.3367 899.7978,228.119 897.0905,232.2929 C896.4137,233.3364 895.7719,234.4043 895.1636,235.4937 C895.0115,235.7661 894.8615,236.0398 894.7136,236.3148 C894.6397,236.4523 894.5662,236.5901 894.4933,236.7282 " fill="none" id="top-messageBroker" style="stroke:#181818;stroke-width:1.0;"/><text fill="#000000" font-family="sans-serif" font-size="13" lengthAdjust="spacing" textLength="38.116" x="1725" y="209.0349">AMQP</text></g><!--SRC=[XPAnJiCm48PtFyMf2rCeOioMCY5HYG9YgJeupf5OSUp8Tf00yKXzYhuORbAtTcZJJBx__kz-onUugQnjJJgVju9AspNYbgbcpWGr9YauBJLj2B7S2eHtRYo5ZztMS4P1xhQVAE2U4AXuWS2uPW89c9hBbZeC-Y6PjPhddSL7fkGh_qQu8qGg1yoQF9q1DT2WCRJ4XLOrQlWXuBxrSX1XK3VarrEqizLQRWPqNtWYS-V0bojLFwZcQ3tKthrmfLbrgBz6JAz5LAz4d9iJK09bmMKPXfqappqDodaqpWp5CJw-iKPQe0wZZuf7NtfX53ouujn06x7_KrcKoC8q5WLPrSOfJl3UjqEljvD-bqao-XrIo9QhP-AtDzKVRdx94QpaYcLwpkbzfntNfh292VitkjJx0m00]--></g></svg>