<svg xmlns="http://www.w3.org/2000/svg" xmlns:xlink="http://www.w3.org/1999/xlink" contentStyleType="text/css" height="378px" preserveAspectRatio="none" style="width:1789px;height:378px;background:#FFFFFF;" version="1.1" viewBox="0 0 1789 378" width="1789px" zoomAndPan="magnify"><title>Vista f&#237;sica n&#237;vel 2</title><defs/><g><text fill="#000000" font-family="sans-serif" font-size="14" font-weight="bold" lengthAdjust="spacing" textLength="122.195" x="826.4025" y="24.9659">Vista f&#237;sica n&#237;vel 2</text><!--cluster messageBroker--><g id="cluster_messageBroker"><polygon fill="none" points="759,247.1379,769,237.1379,973,237.1379,973,351.2079,963,361.2079,759,361.2079,759,247.1379" style="stroke:#181818;stroke-width:1.0;"/><line style="stroke:#181818;stroke-width:1.0;" x1="963" x2="973" y1="247.1379" y2="237.1379"/><line style="stroke:#181818;stroke-width:1.0;" x1="759" x2="963" y1="247.1379" y2="247.1379"/><line style="stroke:#181818;stroke-width:1.0;" x1="963" x2="963" y1="247.1379" y2="361.2079"/><text fill="#000000" font-family="sans-serif" font-size="14" font-weight="bold" lengthAdjust="spacing" textLength="26.7644" x="848.6178" y="265.1039">mb:</text></g><!--cluster auth--><g id="cluster_auth"><polygon fill="none" points="16,56.0679,26,46.0679,155,46.0679,155,160.1379,145,170.1379,16,170.1379,16,56.0679" style="stroke:#181818;stroke-width:1.0;"/><line style="stroke:#181818;stroke-width:1.0;" x1="145" x2="155" y1="56.0679" y2="46.0679"/><line style="stroke:#181818;stroke-width:1.0;" x1="16" x2="145" y1="56.0679" y2="56.0679"/><line style="stroke:#181818;stroke-width:1.0;" x1="145" x2="145" y1="56.0679" y2="170.1379"/><text fill="#000000" font-family="sans-serif" font-size="14" font-weight="bold" lengthAdjust="spacing" textLength="55.3278" x="53.8361" y="74.0339">auth[n]:</text></g><!--cluster bookCom--><g id="cluster_bookCom"><polygon fill="none" points="195,56.0679,205,46.0679,383,46.0679,383,160.1379,373,170.1379,195,170.1379,195,56.0679" style="stroke:#181818;stroke-width:1.0;"/><line style="stroke:#181818;stroke-width:1.0;" x1="373" x2="383" y1="56.0679" y2="46.0679"/><line style="stroke:#181818;stroke-width:1.0;" x1="195" x2="373" y1="56.0679" y2="56.0679"/><line style="stroke:#181818;stroke-width:1.0;" x1="373" x2="373" y1="56.0679" y2="170.1379"/><text fill="#000000" font-family="sans-serif" font-size="14" font-weight="bold" lengthAdjust="spacing" textLength="89.8622" x="240.0689" y="74.0339">bookCom[n]:</text></g><!--cluster bookQuery--><g id="cluster_bookQuery"><polygon fill="none" points="423,56.0679,433,46.0679,601,46.0679,601,160.1379,591,170.1379,423,170.1379,423,56.0679" style="stroke:#181818;stroke-width:1.0;"/><line style="stroke:#181818;stroke-width:1.0;" x1="591" x2="601" y1="56.0679" y2="46.0679"/><line style="stroke:#181818;stroke-width:1.0;" x1="423" x2="591" y1="56.0679" y2="56.0679"/><line style="stroke:#181818;stroke-width:1.0;" x1="591" x2="591" y1="56.0679" y2="170.1379"/><text fill="#000000" font-family="sans-serif" font-size="14" font-weight="bold" lengthAdjust="spacing" textLength="100.7331" x="457.6334" y="74.0339">bookQuery[n]:</text></g><!--cluster lendingCom--><g id="cluster_lendingCom"><polygon fill="none" points="641,56.0679,651,46.0679,839,46.0679,839,160.1379,829,170.1379,641,170.1379,641,56.0679" style="stroke:#181818;stroke-width:1.0;"/><line style="stroke:#181818;stroke-width:1.0;" x1="829" x2="839" y1="56.0679" y2="46.0679"/><line style="stroke:#181818;stroke-width:1.0;" x1="641" x2="829" y1="56.0679" y2="56.0679"/><line style="stroke:#181818;stroke-width:1.0;" x1="829" x2="829" y1="56.0679" y2="170.1379"/><text fill="#000000" font-family="sans-serif" font-size="14" font-weight="bold" lengthAdjust="spacing" textLength="107.7926" x="682.1037" y="74.0339">lendingCom[n]:</text></g><!--cluster lendingQuery--><g id="cluster_lendingQuery"><polygon fill="none" points="879,56.0679,889,46.0679,1087,46.0679,1087,160.1379,1077,170.1379,879,170.1379,879,56.0679" style="stroke:#181818;stroke-width:1.0;"/><line style="stroke:#181818;stroke-width:1.0;" x1="1077" x2="1087" y1="56.0679" y2="46.0679"/><line style="stroke:#181818;stroke-width:1.0;" x1="879" x2="1077" y1="56.0679" y2="56.0679"/><line style="stroke:#181818;stroke-width:1.0;" x1="1077" x2="1077" y1="56.0679" y2="170.1379"/><text fill="#000000" font-family="sans-serif" font-size="14" font-weight="bold" lengthAdjust="spacing" textLength="118.6636" x="919.6682" y="74.0339">lendingQuery[n]:</text></g><!--cluster readerCom--><g id="cluster_readerCom"><polygon fill="none" points="1127,56.0679,1137,46.0679,1318,46.0679,1318,160.1379,1308,170.1379,1127,170.1379,1127,56.0679" style="stroke:#181818;stroke-width:1.0;"/><line style="stroke:#181818;stroke-width:1.0;" x1="1308" x2="1318" y1="56.0679" y2="46.0679"/><line style="stroke:#181818;stroke-width:1.0;" x1="1127" x2="1308" y1="56.0679" y2="56.0679"/><line style="stroke:#181818;stroke-width:1.0;" x1="1308" x2="1308" y1="56.0679" y2="170.1379"/><text fill="#000000" font-family="sans-serif" font-size="14" font-weight="bold" lengthAdjust="spacing" textLength="101.5311" x="1167.7344" y="74.0339">readerCom[n]:</text></g><!--cluster readerQuery--><g id="cluster_readerQuery"><polygon fill="none" points="1358,56.0679,1368,46.0679,1559,46.0679,1559,160.1379,1549,170.1379,1358,170.1379,1358,56.0679" style="stroke:#181818;stroke-width:1.0;"/><line style="stroke:#181818;stroke-width:1.0;" x1="1549" x2="1559" y1="56.0679" y2="46.0679"/><line style="stroke:#181818;stroke-width:1.0;" x1="1358" x2="1549" y1="56.0679" y2="56.0679"/><line style="stroke:#181818;stroke-width:1.0;" x1="1549" x2="1549" y1="56.0679" y2="170.1379"/><text fill="#000000" font-family="sans-serif" font-size="14" font-weight="bold" lengthAdjust="spacing" textLength="112.4021" x="1398.299" y="74.0339">readerQuery[n]:</text></g><!--cluster top--><g id="cluster_top"><polygon fill="none" points="1599,56.0679,1609,46.0679,1772,46.0679,1772,160.1379,1762,170.1379,1599,170.1379,1599,56.0679" style="stroke:#181818;stroke-width:1.0;"/><line style="stroke:#181818;stroke-width:1.0;" x1="1762" x2="1772" y1="56.0679" y2="46.0679"/><line style="stroke:#181818;stroke-width:1.0;" x1="1599" x2="1762" y1="56.0679" y2="56.0679"/><line style="stroke:#181818;stroke-width:1.0;" x1="1762" x2="1762" y1="56.0679" y2="170.1379"/><text fill="#000000" font-family="sans-serif" font-size="14" font-weight="bold" lengthAdjust="spacing" textLength="89.4037" x="1636.7982" y="74.0339">topQuery[n]:</text></g><!--entity Message Broker--><g id="elem_Message Broker"><rect fill="#F1F1F1" height="49.0679" rx="2.5" ry="2.5" style="stroke:#181818;stroke-width:0.5;" width="146.5116" x="802.74" y="288.1379"/><rect fill="#F1F1F1" height="10" style="stroke:#181818;stroke-width:0.5;" width="15" x="929.2516" y="293.1379"/><rect fill="#F1F1F1" height="2" style="stroke:#181818;stroke-width:0.5;" width="4" x="927.2516" y="295.1379"/><rect fill="#F1F1F1" height="2" style="stroke:#181818;stroke-width:0.5;" width="4" x="927.2516" y="299.1379"/><text fill="#000000" font-family="sans-serif" font-size="14" lengthAdjust="spacing" textLength="106.5116" x="817.74" y="323.1039">Message Broker</text></g><!--entity Auth--><g id="elem_Auth"><rect fill="#F1F1F1" height="49.0679" rx="2.5" ry="2.5" style="stroke:#181818;stroke-width:0.5;" width="71.3039" x="59.35" y="97.0679"/><rect fill="#F1F1F1" height="10" style="stroke:#181818;stroke-width:0.5;" width="15" x="110.6539" y="102.0679"/><rect fill="#F1F1F1" height="2" style="stroke:#181818;stroke-width:0.5;" width="4" x="108.6539" y="104.0679"/><rect fill="#F1F1F1" height="2" style="stroke:#181818;stroke-width:0.5;" width="4" x="108.6539" y="108.0679"/><text fill="#000000" font-family="sans-serif" font-size="14" lengthAdjust="spacing" textLength="31.3039" x="74.35" y="132.0339">Auth</text></g><!--entity BooksQuery--><g id="elem_BooksQuery"><rect fill="#F1F1F1" height="49.0679" rx="2.5" ry="2.5" style="stroke:#181818;stroke-width:0.5;" width="120.6257" x="238.69" y="97.0679"/><rect fill="#F1F1F1" height="10" style="stroke:#181818;stroke-width:0.5;" width="15" x="339.3157" y="102.0679"/><rect fill="#F1F1F1" height="2" style="stroke:#181818;stroke-width:0.5;" width="4" x="337.3157" y="104.0679"/><rect fill="#F1F1F1" height="2" style="stroke:#181818;stroke-width:0.5;" width="4" x="337.3157" y="108.0679"/><text fill="#000000" font-family="sans-serif" font-size="14" lengthAdjust="spacing" textLength="80.6257" x="253.69" y="132.0339">BooksQuery</text></g><!--entity BooksCom--><g id="elem_BooksCom"><rect fill="#F1F1F1" height="49.0679" rx="2.5" ry="2.5" style="stroke:#181818;stroke-width:0.5;" width="110.6297" x="466.69" y="97.0679"/><rect fill="#F1F1F1" height="10" style="stroke:#181818;stroke-width:0.5;" width="15" x="557.3197" y="102.0679"/><rect fill="#F1F1F1" height="2" style="stroke:#181818;stroke-width:0.5;" width="4" x="555.3197" y="104.0679"/><rect fill="#F1F1F1" height="2" style="stroke:#181818;stroke-width:0.5;" width="4" x="555.3197" y="108.0679"/><text fill="#000000" font-family="sans-serif" font-size="14" lengthAdjust="spacing" textLength="70.6297" x="481.69" y="132.0339">BooksCom</text></g><!--entity LendingsCom--><g id="elem_LendingsCom"><rect fill="#F1F1F1" height="49.0679" rx="2.5" ry="2.5" style="stroke:#181818;stroke-width:0.5;" width="130.4816" x="684.76" y="97.0679"/><rect fill="#F1F1F1" height="10" style="stroke:#181818;stroke-width:0.5;" width="15" x="795.2416" y="102.0679"/><rect fill="#F1F1F1" height="2" style="stroke:#181818;stroke-width:0.5;" width="4" x="793.2416" y="104.0679"/><rect fill="#F1F1F1" height="2" style="stroke:#181818;stroke-width:0.5;" width="4" x="793.2416" y="108.0679"/><text fill="#000000" font-family="sans-serif" font-size="14" lengthAdjust="spacing" textLength="90.4816" x="699.76" y="132.0339">LendingsCom</text></g><!--entity LendingsQuery--><g id="elem_LendingsQuery"><rect fill="#F1F1F1" height="49.0679" rx="2.5" ry="2.5" style="stroke:#181818;stroke-width:0.5;" width="140.4776" x="922.76" y="97.0679"/><rect fill="#F1F1F1" height="10" style="stroke:#181818;stroke-width:0.5;" width="15" x="1043.2376" y="102.0679"/><rect fill="#F1F1F1" height="2" style="stroke:#181818;stroke-width:0.5;" width="4" x="1041.2376" y="104.0679"/><rect fill="#F1F1F1" height="2" style="stroke:#181818;stroke-width:0.5;" width="4" x="1041.2376" y="108.0679"/><text fill="#000000" font-family="sans-serif" font-size="14" lengthAdjust="spacing" textLength="100.4776" x="937.76" y="132.0339">LendingsQuery</text></g><!--entity ReadersCom--><g id="elem_ReadersCom"><rect fill="#F1F1F1" height="49.0679" rx="2.5" ry="2.5" style="stroke:#181818;stroke-width:0.5;" width="123.8597" x="1170.07" y="97.0679"/><rect fill="#F1F1F1" height="10" style="stroke:#181818;stroke-width:0.5;" width="15" x="1273.9297" y="102.0679"/><rect fill="#F1F1F1" height="2" style="stroke:#181818;stroke-width:0.5;" width="4" x="1271.9297" y="104.0679"/><rect fill="#F1F1F1" height="2" style="stroke:#181818;stroke-width:0.5;" width="4" x="1271.9297" y="108.0679"/><text fill="#000000" font-family="sans-serif" font-size="14" lengthAdjust="spacing" textLength="83.8597" x="1185.07" y="132.0339">ReadersCom</text></g><!--entity ReadersQuery--><g id="elem_ReadersQuery"><rect fill="#F1F1F1" height="49.0679" rx="2.5" ry="2.5" style="stroke:#181818;stroke-width:0.5;" width="133.8556" x="1401.07" y="97.0679"/><rect fill="#F1F1F1" height="10" style="stroke:#181818;stroke-width:0.5;" width="15" x="1514.9256" y="102.0679"/><rect fill="#F1F1F1" height="2" style="stroke:#181818;stroke-width:0.5;" width="4" x="1512.9256" y="104.0679"/><rect fill="#F1F1F1" height="2" style="stroke:#181818;stroke-width:0.5;" width="4" x="1512.9256" y="108.0679"/><text fill="#000000" font-family="sans-serif" font-size="14" lengthAdjust="spacing" textLength="93.8556" x="1416.07" y="132.0339">ReadersQuery</text></g><!--entity TopQuery--><g id="elem_TopQuery"><rect fill="#F1F1F1" height="49.0679" rx="2.5" ry="2.5" style="stroke:#181818;stroke-width:0.5;" width="105.2677" x="1642.37" y="97.0679"/><rect fill="#F1F1F1" height="10" style="stroke:#181818;stroke-width:0.5;" width="15" x="1727.6377" y="102.0679"/><rect fill="#F1F1F1" height="2" style="stroke:#181818;stroke-width:0.5;" width="4" x="1725.6377" y="104.0679"/><rect fill="#F1F1F1" height="2" style="stroke:#181818;stroke-width:0.5;" width="4" x="1725.6377" y="108.0679"/><text fill="#000000" font-family="sans-serif" font-size="14" lengthAdjust="spacing" textLength="65.2677" x="1657.37" y="132.0339">TopQuery</text></g><!--link auth to messageBroker--><g id="link_auth_messageBroker"><path d="M31.869,170.3907 C31.9625,170.5953 32.057,170.7993 32.1527,171.0027 C32.5352,171.8165 32.935,172.6214 33.353,173.4155 C34.189,175.0037 35.0975,176.5488 36.0846,178.0357 C38.0587,181.0095 40.3475,183.7504 43,186.1379 C91.4,229.6979 122.9,201.6879 187,213.1379 C314.69,235.9529 458.43,260.3829 570.87,279.2104 C627.09,288.6242 675.485,296.6373 710.1363,302.3476 C727.4619,305.2028 741.3516,307.4822 751.0655,309.0732 C753.4939,309.4709 755.6614,309.8256 757.5564,310.1356 C758.0301,310.2131 758.4868,310.2877 758.9263,310.3596 " fill="none" id="auth-messageBroker" style="stroke:#181818;stroke-width:1.0;"/><text fill="#000000" font-family="sans-serif" font-size="13" lengthAdjust="spacing" textLength="38.116" x="188" y="209.0349">AMQP</text></g><!--link bookCom to messageBroker--><g id="link_bookCom_messageBroker"><path d="M211.8118,170.2379 C211.9075,170.4432 212.0043,170.648 212.1021,170.8523 C212.4933,171.6693 212.9011,172.478 213.3262,173.2764 C214.1765,174.8732 215.096,176.4289 216.0904,177.9287 C218.0792,180.9282 220.3675,183.7042 223,186.1379 C268.19,227.9279 402.4275,259.1504 526.2388,280.0054 C588.1444,290.4329 647.4434,298.2685 691.7017,303.5373 C713.8309,306.1717 732.1998,308.1643 745.2543,309.5184 C748.5179,309.8569 751.4494,310.1555 754.0244,310.4142 C755.3119,310.5436 756.5103,310.663 757.6166,310.7725 C757.8931,310.7998 758.1639,310.8266 758.4289,310.8527 " fill="none" id="bookCom-messageBroker" style="stroke:#181818;stroke-width:1.0;"/><text fill="#000000" font-family="sans-serif" font-size="13" lengthAdjust="spacing" textLength="38.116" x="261" y="209.0349">AMQP</text></g><!--link bookQuery to messageBroker--><g id="link_bookQuery_messageBroker"><path d="M440.7301,170.2282 C441.1075,171.0591 441.4995,171.8835 441.9066,172.6997 C442.721,174.3321 443.5962,175.9319 444.5367,177.4853 C446.4177,180.592 448.56,183.5129 451,186.1379 C501.635,240.6229 578.9775,271.8854 644.4712,289.5854 C677.2181,298.4354 707.0028,303.8948 729.0058,307.171 C740.0073,308.8092 749.0633,309.9015 755.5715,310.599 C756.385,310.6862 757.1587,310.7672 757.8915,310.8424 C758.2578,310.8799 758.6139,310.916 758.9597,310.9507 " fill="none" id="bookQuery-messageBroker" style="stroke:#181818;stroke-width:1.0;"/><text fill="#000000" font-family="sans-serif" font-size="13" lengthAdjust="spacing" textLength="38.116" x="478" y="209.0349">AMQP</text></g><!--link lendingCom to messageBroker--><g id="link_lendingCom_messageBroker"><path d="M661.9849,170.3993 C662.0679,170.6163 662.1513,170.8332 662.2351,171.05 C662.9055,172.7844 663.6027,174.5102 664.327,176.2166 C665.7756,179.6296 667.3325,182.9654 669,186.1379 C685.21,216.9779 709.2025,247.8704 729.39,271.2929 C739.4838,283.0042 748.6263,292.8479 755.3691,299.8839 C756.2119,300.7633 757.0173,301.599 757.7823,302.3889 C758.1648,302.7838 758.5373,303.1674 758.8993,303.5392 " fill="none" id="lendingCom-messageBroker" style="stroke:#181818;stroke-width:1.0;"/><text fill="#000000" font-family="sans-serif" font-size="13" lengthAdjust="spacing" textLength="38.116" x="685" y="209.0349">AMQP</text></g><!--link lendingQuery to messageBroker--><g id="link_lendingQuery_messageBroker"><path d="M878.872,132.9139 C878.7544,133.06 878.6357,133.2072 878.516,133.3557 C877.5581,134.5436 876.5319,135.809 875.4439,137.1409 C873.2681,139.8049 870.8456,142.7351 868.23,145.8442 C857.7675,158.2804 844.215,173.5779 831,186.1379 C812.89,203.3579 800.23,199.9479 787,221.1379 C784.3575,225.3704 782.0617,229.9054 780.0674,234.6076 C779.8182,235.1954 779.5736,235.7858 779.3336,236.3785 C779.2736,236.5267 779.2139,236.675 779.1545,236.8235 " fill="none" id="lendingQuery-messageBroker" style="stroke:#181818;stroke-width:1.0;"/><text fill="#000000" font-family="sans-serif" font-size="13" lengthAdjust="spacing" textLength="38.116" x="821" y="209.0349">AMQP</text></g><!--link readerCom to messageBroker--><g id="link_readerCom_messageBroker"><path d="M1126.8723,136.7576 C1126.7613,136.934 1126.6492,137.1115 1126.5361,137.2901 C1126.0836,138.0044 1125.6143,138.736 1125.1286,139.4828 C1123.1859,142.4703 1120.9803,145.7017 1118.5338,149.0454 C1108.7475,162.4204 1095.105,177.5929 1079,186.1379 C995.48,230.4479 961.94,202.4879 868,213.1379 C850.03,215.1779 800.53,209.1379 787,221.1379 C783.2075,224.5042 780.0455,228.4128 777.4162,232.6793 C776.7588,233.7459 776.1348,234.8349 775.5426,235.9434 C775.3945,236.2205 775.2484,236.4988 775.1043,236.7783 " fill="none" id="readerCom-messageBroker" style="stroke:#181818;stroke-width:1.0;"/><text fill="#000000" font-family="sans-serif" font-size="13" lengthAdjust="spacing" textLength="38.116" x="1060" y="209.0349">AMQP</text></g><!--link readerQuery to messageBroker--><g id="link_readerQuery_messageBroker"><path d="M1357.8633,136.7352 C1357.7522,136.9114 1357.64,137.0887 1357.5268,137.267 C1357.0738,137.9805 1356.6042,138.7113 1356.1181,139.4574 C1354.1737,142.4416 1351.9666,145.6701 1349.5188,149.0117 C1339.7275,162.3779 1326.085,177.5529 1310,186.1379 C1229.71,228.9979 1197.74,205.9879 1107,213.1379 C1089.27,214.5379 800.72,209.8279 787,221.1379 C783.0863,224.3629 779.8328,228.1651 777.1364,232.3536 C776.4624,233.4007 775.8231,234.472 775.217,235.5644 C775.0655,235.8375 774.916,236.112 774.7687,236.3877 C774.695,236.5255 774.6218,236.6637 774.5491,236.8022 " fill="none" id="readerQuery-messageBroker" style="stroke:#181818;stroke-width:1.0;"/><text fill="#000000" font-family="sans-serif" font-size="13" lengthAdjust="spacing" textLength="38.116" x="1292" y="209.0349">AMQP</text></g><!--link top to messageBroker--><g id="link_top_messageBroker"><path d="M1598.8745,136.7599 C1598.7635,136.9363 1598.6515,137.1138 1598.5384,137.2924 C1598.086,138.0068 1597.6168,138.7385 1597.1313,139.4855 C1595.1889,142.4733 1592.9837,145.7051 1590.5375,149.0492 C1580.7525,162.4254 1567.11,177.5979 1551,186.1379 C1467.08,230.6279 1433.75,206.4379 1339,213.1379 C1323.7,214.2179 798.89,211.4479 787,221.1379 C783.07,224.3417 779.8044,228.1278 777.0991,232.3044 C776.4228,233.3485 775.7815,234.4171 775.1736,235.5071 C775.0217,235.7796 774.8718,236.0534 774.7239,236.3285 C774.65,236.4661 774.5766,236.604 774.5038,236.7422 " fill="none" id="top-messageBroker" style="stroke:#181818;stroke-width:1.0;"/><text fill="#000000" font-family="sans-serif" font-size="13" lengthAdjust="spacing" textLength="38.116" x="1532" y="209.0349">AMQP</text></g><!--SRC=[XP5DJiCm48NtFiMe6rOXY6LsAIiaAb50RAekd6H8hFWdiXqaG1off-Z5S9EwTIoQPfLvyxvvrWpSDDPs9alJZbDfUy5lIoNIabDZaehHMbD1Y6MM8xmpOobyx7U6bHJaVlU97Eu9WOPL22NJ9KS2fcMoemw3OKXkhMP5R_6nLFALVIFS4IAL0nQYo1P03GWqXjQurAf53Jy4tBTPZIACwfRyUehsjjd8xOWU2a_axZ_m5Kgr3qgShCVQkvUkDEiUzLV43Dg46fG9v-O454TPCLc7OMV9Sq-ZyZywpGp568zVh95MgCFea-BHbq68WaVND3VG8ZPEjQgReaxmoDknDzZ9SA0aYMwSGRvQFnD_ahd- -9nBZc3FLoppSyvBctVCJpbiuLBl3m00]--></g></svg>